<?xml version="1.0" encoding="utf-8"?>
<!-- Generated by IcoMoon.io -->
<!DOCTYPE svg PUBLIC "-//W3C//DTD SVG 1.1//EN" "http://www.w3.org/Graphics/SVG/1.1/DTD/svg11.dtd">
<svg version="1.1" xmlns="http://www.w3.org/2000/svg" xmlns:xlink="http://www.w3.org/1999/xlink" width="512" height="512" viewBox="0 0 512 512">
<g id="icomoon-ignore">
    <line stroke-width="1" x1="16" y1="0" x2="16" y2="512" stroke="#449FDB" opacity="0.3"></line>
    <line stroke-width="1" x1="32" y1="0" x2="32" y2="512" stroke="#449FDB" opacity="1"></line>
    <line stroke-width="1" x1="48" y1="0" x2="48" y2="512" stroke="#449FDB" opacity="0.3"></line>
    <line stroke-width="1" x1="64" y1="0" x2="64" y2="512" stroke="#449FDB" opacity="1"></line>
    <line stroke-width="1" x1="80" y1="0" x2="80" y2="512" stroke="#449FDB" opacity="0.3"></line>
    <line stroke-width="1" x1="96" y1="0" x2="96" y2="512" stroke="#449FDB" opacity="1"></line>
    <line stroke-width="1" x1="112" y1="0" x2="112" y2="512" stroke="#449FDB" opacity="0.3"></line>
    <line stroke-width="1" x1="128" y1="0" x2="128" y2="512" stroke="#449FDB" opacity="1"></line>
    <line stroke-width="1" x1="144" y1="0" x2="144" y2="512" stroke="#449FDB" opacity="0.3"></line>
    <line stroke-width="1" x1="160" y1="0" x2="160" y2="512" stroke="#449FDB" opacity="1"></line>
    <line stroke-width="1" x1="176" y1="0" x2="176" y2="512" stroke="#449FDB" opacity="0.3"></line>
    <line stroke-width="1" x1="192" y1="0" x2="192" y2="512" stroke="#449FDB" opacity="1"></line>
    <line stroke-width="1" x1="208" y1="0" x2="208" y2="512" stroke="#449FDB" opacity="0.3"></line>
    <line stroke-width="1" x1="224" y1="0" x2="224" y2="512" stroke="#449FDB" opacity="1"></line>
    <line stroke-width="1" x1="240" y1="0" x2="240" y2="512" stroke="#449FDB" opacity="0.3"></line>
    <line stroke-width="1" x1="256" y1="0" x2="256" y2="512" stroke="#449FDB" opacity="1"></line>
    <line stroke-width="1" x1="272" y1="0" x2="272" y2="512" stroke="#449FDB" opacity="0.3"></line>
    <line stroke-width="1" x1="288" y1="0" x2="288" y2="512" stroke="#449FDB" opacity="1"></line>
    <line stroke-width="1" x1="304" y1="0" x2="304" y2="512" stroke="#449FDB" opacity="0.3"></line>
    <line stroke-width="1" x1="320" y1="0" x2="320" y2="512" stroke="#449FDB" opacity="1"></line>
    <line stroke-width="1" x1="336" y1="0" x2="336" y2="512" stroke="#449FDB" opacity="0.3"></line>
    <line stroke-width="1" x1="352" y1="0" x2="352" y2="512" stroke="#449FDB" opacity="1"></line>
    <line stroke-width="1" x1="368" y1="0" x2="368" y2="512" stroke="#449FDB" opacity="0.3"></line>
    <line stroke-width="1" x1="384" y1="0" x2="384" y2="512" stroke="#449FDB" opacity="1"></line>
    <line stroke-width="1" x1="400" y1="0" x2="400" y2="512" stroke="#449FDB" opacity="0.3"></line>
    <line stroke-width="1" x1="416" y1="0" x2="416" y2="512" stroke="#449FDB" opacity="1"></line>
    <line stroke-width="1" x1="432" y1="0" x2="432" y2="512" stroke="#449FDB" opacity="0.3"></line>
    <line stroke-width="1" x1="448" y1="0" x2="448" y2="512" stroke="#449FDB" opacity="1"></line>
    <line stroke-width="1" x1="464" y1="0" x2="464" y2="512" stroke="#449FDB" opacity="0.3"></line>
    <line stroke-width="1" x1="480" y1="0" x2="480" y2="512" stroke="#449FDB" opacity="1"></line>
    <line stroke-width="1" x1="496" y1="0" x2="496" y2="512" stroke="#449FDB" opacity="0.3"></line>
    <line stroke-width="1" x1="0" y1="16" x2="512" y2="16" stroke="#449FDB" opacity="0.3"></line>
    <line stroke-width="1" x1="0" y1="32" x2="512" y2="32" stroke="#449FDB" opacity="1"></line>
    <line stroke-width="1" x1="0" y1="48" x2="512" y2="48" stroke="#449FDB" opacity="0.3"></line>
    <line stroke-width="1" x1="0" y1="64" x2="512" y2="64" stroke="#449FDB" opacity="1"></line>
    <line stroke-width="1" x1="0" y1="80" x2="512" y2="80" stroke="#449FDB" opacity="0.3"></line>
    <line stroke-width="1" x1="0" y1="96" x2="512" y2="96" stroke="#449FDB" opacity="1"></line>
    <line stroke-width="1" x1="0" y1="112" x2="512" y2="112" stroke="#449FDB" opacity="0.3"></line>
    <line stroke-width="1" x1="0" y1="128" x2="512" y2="128" stroke="#449FDB" opacity="1"></line>
    <line stroke-width="1" x1="0" y1="144" x2="512" y2="144" stroke="#449FDB" opacity="0.3"></line>
    <line stroke-width="1" x1="0" y1="160" x2="512" y2="160" stroke="#449FDB" opacity="1"></line>
    <line stroke-width="1" x1="0" y1="176" x2="512" y2="176" stroke="#449FDB" opacity="0.3"></line>
    <line stroke-width="1" x1="0" y1="192" x2="512" y2="192" stroke="#449FDB" opacity="1"></line>
    <line stroke-width="1" x1="0" y1="208" x2="512" y2="208" stroke="#449FDB" opacity="0.3"></line>
    <line stroke-width="1" x1="0" y1="224" x2="512" y2="224" stroke="#449FDB" opacity="1"></line>
    <line stroke-width="1" x1="0" y1="240" x2="512" y2="240" stroke="#449FDB" opacity="0.3"></line>
    <line stroke-width="1" x1="0" y1="256" x2="512" y2="256" stroke="#449FDB" opacity="1"></line>
    <line stroke-width="1" x1="0" y1="272" x2="512" y2="272" stroke="#449FDB" opacity="0.3"></line>
    <line stroke-width="1" x1="0" y1="288" x2="512" y2="288" stroke="#449FDB" opacity="1"></line>
    <line stroke-width="1" x1="0" y1="304" x2="512" y2="304" stroke="#449FDB" opacity="0.3"></line>
    <line stroke-width="1" x1="0" y1="320" x2="512" y2="320" stroke="#449FDB" opacity="1"></line>
    <line stroke-width="1" x1="0" y1="336" x2="512" y2="336" stroke="#449FDB" opacity="0.3"></line>
    <line stroke-width="1" x1="0" y1="352" x2="512" y2="352" stroke="#449FDB" opacity="1"></line>
    <line stroke-width="1" x1="0" y1="368" x2="512" y2="368" stroke="#449FDB" opacity="0.3"></line>
    <line stroke-width="1" x1="0" y1="384" x2="512" y2="384" stroke="#449FDB" opacity="1"></line>
    <line stroke-width="1" x1="0" y1="400" x2="512" y2="400" stroke="#449FDB" opacity="0.3"></line>
    <line stroke-width="1" x1="0" y1="416" x2="512" y2="416" stroke="#449FDB" opacity="1"></line>
    <line stroke-width="1" x1="0" y1="432" x2="512" y2="432" stroke="#449FDB" opacity="0.3"></line>
    <line stroke-width="1" x1="0" y1="448" x2="512" y2="448" stroke="#449FDB" opacity="1"></line>
    <line stroke-width="1" x1="0" y1="464" x2="512" y2="464" stroke="#449FDB" opacity="0.3"></line>
    <line stroke-width="1" x1="0" y1="480" x2="512" y2="480" stroke="#449FDB" opacity="1"></line>
    <line stroke-width="1" x1="0" y1="496" x2="512" y2="496" stroke="#449FDB" opacity="0.3"></line>
</g>
<path d="M91.819 510.293h-3.072c-22.87-0.683-44.373-10.24-60.416-26.624-16.043-16.043-25.259-38.57-25.259-61.781 0-23.894 8.534-45.738 24.918-62.123l40.277-40.278c3.755-3.755 10.24-3.755 13.995 0l110.251 110.592c3.755 3.755 3.755 10.24 0 13.995l-42.326 42.325c-15.702 15.702-36.181 23.894-58.368 23.894zM75.094 340.992l-33.109 33.109c-12.288 12.288-19.114 29.355-19.114 47.786 0 18.091 7.168 35.498 19.456 47.786 12.63 12.63 29.696 20.139 47.104 20.822 17.749 0.683 34.133-5.803 46.421-17.75l35.157-35.498-95.915-96.256z"></path>
<path d="M150.528 474.112c-2.389 0-5.12-1.024-7.168-3.072l-106.496-106.496c-3.755-3.755-3.755-10.24 0-13.995s10.24-3.755 13.995 0l106.496 106.496c3.755 3.755 3.755 10.24 0 13.995-1.707 2.048-4.096 3.072-6.827 3.072z"></path>
<path d="M158.037 419.84c-3.072 0-5.803-1.365-7.851-3.755-3.413-4.438-2.731-10.582 1.707-13.995l251.904-201.387-12.288-75.434-77.483-14.336-200.363 252.928c-3.413 4.438-9.558 5.12-13.995 1.707s-5.12-9.558-1.707-13.995l204.118-257.365c2.389-2.731 6.144-4.438 9.558-3.755l90.454 16.725c4.096 0.683 7.168 4.096 7.851 8.192l14.336 88.064c0.683 3.413-0.683 7.168-3.755 9.216l-256.341 205.142c-1.707 1.365-4.096 2.048-6.144 2.048z"></path>
<path d="M75.094 336.896c-1.024 0-2.389-0.341-3.413-0.683-5.12-1.707-7.85-7.51-6.144-12.63l104.448-292.864c1.024-3.413 4.096-5.803 7.51-6.486l101.376-21.163c4.779-1.024 9.899 1.707 11.606 6.486l29.014 87.040c1.707 5.12-1.024 10.922-6.144 12.63s-10.923-1.024-12.63-6.144l-26.283-78.507-87.382 18.090-102.4 287.402c-1.707 4.096-5.462 6.827-9.558 6.827z"></path>
<path d="M185.344 447.147c-4.096 0-7.851-2.389-9.216-6.486-1.707-5.12 1.024-10.923 6.144-12.63l287.402-102.4 18.091-87.382-78.507-26.282c-5.12-1.707-8.192-7.51-6.144-12.63 1.707-5.12 7.51-8.192 12.63-6.144l87.040 29.013c4.779 1.707 7.51 6.486 6.486 11.606l-21.163 101.376c-0.683 3.413-3.072 6.144-6.486 7.51l-292.522 104.106c-1.365 0.341-2.731 0.341-3.755 0.341z"></path>
<path d="M350.55 387.413c-3.755 0-7.168-2.048-8.875-5.462l-18.774-36.522c-17.067-33.109-39.253-63.147-65.536-89.43-25.258-24.576-53.589-45.738-84.65-62.464l-43.691-23.552c-4.778-2.731-6.486-8.534-4.096-13.654 2.731-4.779 8.534-6.486 13.654-4.096l43.69 23.552c32.768 17.75 62.464 39.936 88.747 66.219 27.648 27.648 51.2 59.392 69.291 94.549l18.774 36.522c2.389 4.779 0.683 10.923-4.096 13.312-1.365 0.683-3.072 1.024-4.438 1.024z"></path>
<path d="M285.354 411.648c-3.755 0-7.51-2.048-9.216-5.803l-8.534-18.774c-14.678-32.086-34.816-60.757-59.733-85.674-21.504-21.504-45.738-39.254-72.363-53.248l-28.672-15.018c-4.778-2.389-6.826-8.534-4.096-13.312 2.389-4.779 8.534-6.827 13.312-4.096l28.672 15.018c28.672 15.018 54.613 33.792 77.483 56.661 26.624 26.624 48.128 57.344 63.488 91.478l8.534 18.774c2.389 5.12 0 10.923-4.779 13.312-1.365 0.341-2.731 0.683-4.096 0.683z"></path>
</svg>
