<?xml version="1.0" encoding="utf-8"?>
<!-- Generated by IcoMoon.io -->
<!DOCTYPE svg PUBLIC "-//W3C//DTD SVG 1.1//EN" "http://www.w3.org/Graphics/SVG/1.1/DTD/svg11.dtd">
<svg version="1.1" xmlns="http://www.w3.org/2000/svg" xmlns:xlink="http://www.w3.org/1999/xlink" width="512" height="512" viewBox="0 0 512 512">
<g id="icomoon-ignore">
    <line stroke-width="1" x1="16" y1="0" x2="16" y2="512" stroke="#449FDB" opacity="0.3"></line>
    <line stroke-width="1" x1="32" y1="0" x2="32" y2="512" stroke="#449FDB" opacity="1"></line>
    <line stroke-width="1" x1="48" y1="0" x2="48" y2="512" stroke="#449FDB" opacity="0.3"></line>
    <line stroke-width="1" x1="64" y1="0" x2="64" y2="512" stroke="#449FDB" opacity="1"></line>
    <line stroke-width="1" x1="80" y1="0" x2="80" y2="512" stroke="#449FDB" opacity="0.3"></line>
    <line stroke-width="1" x1="96" y1="0" x2="96" y2="512" stroke="#449FDB" opacity="1"></line>
    <line stroke-width="1" x1="112" y1="0" x2="112" y2="512" stroke="#449FDB" opacity="0.3"></line>
    <line stroke-width="1" x1="128" y1="0" x2="128" y2="512" stroke="#449FDB" opacity="1"></line>
    <line stroke-width="1" x1="144" y1="0" x2="144" y2="512" stroke="#449FDB" opacity="0.3"></line>
    <line stroke-width="1" x1="160" y1="0" x2="160" y2="512" stroke="#449FDB" opacity="1"></line>
    <line stroke-width="1" x1="176" y1="0" x2="176" y2="512" stroke="#449FDB" opacity="0.3"></line>
    <line stroke-width="1" x1="192" y1="0" x2="192" y2="512" stroke="#449FDB" opacity="1"></line>
    <line stroke-width="1" x1="208" y1="0" x2="208" y2="512" stroke="#449FDB" opacity="0.3"></line>
    <line stroke-width="1" x1="224" y1="0" x2="224" y2="512" stroke="#449FDB" opacity="1"></line>
    <line stroke-width="1" x1="240" y1="0" x2="240" y2="512" stroke="#449FDB" opacity="0.3"></line>
    <line stroke-width="1" x1="256" y1="0" x2="256" y2="512" stroke="#449FDB" opacity="1"></line>
    <line stroke-width="1" x1="272" y1="0" x2="272" y2="512" stroke="#449FDB" opacity="0.3"></line>
    <line stroke-width="1" x1="288" y1="0" x2="288" y2="512" stroke="#449FDB" opacity="1"></line>
    <line stroke-width="1" x1="304" y1="0" x2="304" y2="512" stroke="#449FDB" opacity="0.3"></line>
    <line stroke-width="1" x1="320" y1="0" x2="320" y2="512" stroke="#449FDB" opacity="1"></line>
    <line stroke-width="1" x1="336" y1="0" x2="336" y2="512" stroke="#449FDB" opacity="0.3"></line>
    <line stroke-width="1" x1="352" y1="0" x2="352" y2="512" stroke="#449FDB" opacity="1"></line>
    <line stroke-width="1" x1="368" y1="0" x2="368" y2="512" stroke="#449FDB" opacity="0.3"></line>
    <line stroke-width="1" x1="384" y1="0" x2="384" y2="512" stroke="#449FDB" opacity="1"></line>
    <line stroke-width="1" x1="400" y1="0" x2="400" y2="512" stroke="#449FDB" opacity="0.3"></line>
    <line stroke-width="1" x1="416" y1="0" x2="416" y2="512" stroke="#449FDB" opacity="1"></line>
    <line stroke-width="1" x1="432" y1="0" x2="432" y2="512" stroke="#449FDB" opacity="0.3"></line>
    <line stroke-width="1" x1="448" y1="0" x2="448" y2="512" stroke="#449FDB" opacity="1"></line>
    <line stroke-width="1" x1="464" y1="0" x2="464" y2="512" stroke="#449FDB" opacity="0.3"></line>
    <line stroke-width="1" x1="480" y1="0" x2="480" y2="512" stroke="#449FDB" opacity="1"></line>
    <line stroke-width="1" x1="496" y1="0" x2="496" y2="512" stroke="#449FDB" opacity="0.3"></line>
    <line stroke-width="1" x1="0" y1="16" x2="512" y2="16" stroke="#449FDB" opacity="0.3"></line>
    <line stroke-width="1" x1="0" y1="32" x2="512" y2="32" stroke="#449FDB" opacity="1"></line>
    <line stroke-width="1" x1="0" y1="48" x2="512" y2="48" stroke="#449FDB" opacity="0.3"></line>
    <line stroke-width="1" x1="0" y1="64" x2="512" y2="64" stroke="#449FDB" opacity="1"></line>
    <line stroke-width="1" x1="0" y1="80" x2="512" y2="80" stroke="#449FDB" opacity="0.3"></line>
    <line stroke-width="1" x1="0" y1="96" x2="512" y2="96" stroke="#449FDB" opacity="1"></line>
    <line stroke-width="1" x1="0" y1="112" x2="512" y2="112" stroke="#449FDB" opacity="0.3"></line>
    <line stroke-width="1" x1="0" y1="128" x2="512" y2="128" stroke="#449FDB" opacity="1"></line>
    <line stroke-width="1" x1="0" y1="144" x2="512" y2="144" stroke="#449FDB" opacity="0.3"></line>
    <line stroke-width="1" x1="0" y1="160" x2="512" y2="160" stroke="#449FDB" opacity="1"></line>
    <line stroke-width="1" x1="0" y1="176" x2="512" y2="176" stroke="#449FDB" opacity="0.3"></line>
    <line stroke-width="1" x1="0" y1="192" x2="512" y2="192" stroke="#449FDB" opacity="1"></line>
    <line stroke-width="1" x1="0" y1="208" x2="512" y2="208" stroke="#449FDB" opacity="0.3"></line>
    <line stroke-width="1" x1="0" y1="224" x2="512" y2="224" stroke="#449FDB" opacity="1"></line>
    <line stroke-width="1" x1="0" y1="240" x2="512" y2="240" stroke="#449FDB" opacity="0.3"></line>
    <line stroke-width="1" x1="0" y1="256" x2="512" y2="256" stroke="#449FDB" opacity="1"></line>
    <line stroke-width="1" x1="0" y1="272" x2="512" y2="272" stroke="#449FDB" opacity="0.3"></line>
    <line stroke-width="1" x1="0" y1="288" x2="512" y2="288" stroke="#449FDB" opacity="1"></line>
    <line stroke-width="1" x1="0" y1="304" x2="512" y2="304" stroke="#449FDB" opacity="0.3"></line>
    <line stroke-width="1" x1="0" y1="320" x2="512" y2="320" stroke="#449FDB" opacity="1"></line>
    <line stroke-width="1" x1="0" y1="336" x2="512" y2="336" stroke="#449FDB" opacity="0.3"></line>
    <line stroke-width="1" x1="0" y1="352" x2="512" y2="352" stroke="#449FDB" opacity="1"></line>
    <line stroke-width="1" x1="0" y1="368" x2="512" y2="368" stroke="#449FDB" opacity="0.3"></line>
    <line stroke-width="1" x1="0" y1="384" x2="512" y2="384" stroke="#449FDB" opacity="1"></line>
    <line stroke-width="1" x1="0" y1="400" x2="512" y2="400" stroke="#449FDB" opacity="0.3"></line>
    <line stroke-width="1" x1="0" y1="416" x2="512" y2="416" stroke="#449FDB" opacity="1"></line>
    <line stroke-width="1" x1="0" y1="432" x2="512" y2="432" stroke="#449FDB" opacity="0.3"></line>
    <line stroke-width="1" x1="0" y1="448" x2="512" y2="448" stroke="#449FDB" opacity="1"></line>
    <line stroke-width="1" x1="0" y1="464" x2="512" y2="464" stroke="#449FDB" opacity="0.3"></line>
    <line stroke-width="1" x1="0" y1="480" x2="512" y2="480" stroke="#449FDB" opacity="1"></line>
    <line stroke-width="1" x1="0" y1="496" x2="512" y2="496" stroke="#449FDB" opacity="0.3"></line>
</g>
<path d="M255.654 1.038c70.227 0 134.227 28.713 180.238 74.725s74.724 110.011 74.724 180.238c0 70.227-28.368 134.227-74.725 180.238-46.011 46.011-110.011 74.724-180.238 74.724s-134.227-28.368-180.238-74.725c-46.011-46.011-74.725-110.011-74.725-180.238s28.367-134.227 74.725-180.238c46.011-46.011 109.665-74.725 180.238-74.725v0zM421.016 90.638c-42.205-42.206-100.671-68.498-165.362-68.498s-123.157 26.292-165.362 68.498c-42.551 42.206-68.843 100.671-68.843 165.362s26.292 123.157 68.498 165.362c42.206 42.206 100.67 68.498 165.362 68.498s123.157-26.292 165.362-68.498c42.206-42.206 68.498-100.671 68.498-165.362s-25.946-123.157-68.151-165.362z"></path>
<path d="M279.178 224.173c19.719 0 35.632-15.913 35.632-35.632s-15.913-35.632-35.632-35.632c-19.719 0-35.632 15.913-35.632 35.632s16.26 35.632 35.632 35.632z"></path>
<path d="M312.305 278.087c15.719-9.075 35.121-4.897 43.337 9.332s2.134 33.121-13.586 42.197c-15.719 9.075-35.121 4.897-43.337-9.332s-2.134-33.121 13.586-42.197z"></path>
<path d="M226.484 69.713c13.733-7.929 30.674-4.297 37.839 8.112s1.84 28.897-11.893 36.826c-13.733 7.929-30.674 4.297-37.839-8.112s-1.84-28.897 11.893-36.826z"></path>
<path d="M116.632 108.334c13.733-7.929 29.9-5.638 36.109 5.117s0.111 25.901-13.623 33.83c-13.733 7.929-29.9 5.638-36.109-5.117s-0.111-25.901 13.623-33.83z"></path>
<path d="M148.114 205.826c16.978-4.549 34.87 7.173 39.964 26.18s-4.542 38.105-21.52 42.654c-16.978 4.549-34.87-7.173-39.964-26.18s4.542-38.105 21.52-42.654z"></path>
<path d="M197.75 335.233c12.429-12.429 33.786-11.224 47.701 2.691s15.12 35.272 2.691 47.7c-12.429 12.429-33.786 11.224-47.701-2.691s-15.12-35.272-2.691-47.7z"></path>
<path d="M361.437 82.181c14.229 8.216 21.738 21.85 16.77 30.454s-20.53 8.918-34.76 0.703c-14.229-8.216-21.738-21.85-16.77-30.454s20.53-8.918 34.76-0.703z"></path>
<path d="M428.973 239.394c0 16.431-8.054 29.752-17.989 29.752s-17.989-13.32-17.989-29.751c0-16.431 8.054-29.751 17.989-29.751s17.989 13.32 17.989 29.751z"></path>
<path d="M94.891 299.755c4.252 15.871-0.079 30.821-9.676 33.392s-20.823-8.211-25.076-24.081c-4.252-15.871 0.080-30.821 9.676-33.392s20.823 8.211 25.076 24.081z"></path>
<path d="M149.111 378.957c11.619 11.618 15.342 26.732 8.317 33.757s-22.139 3.301-33.757-8.317c-11.618-11.618-15.342-26.732-8.317-33.757s22.139-3.301 33.757 8.317z"></path>
<path d="M353.291 380.332c14.229-8.216 29.791-7.901 34.76 0.703s-2.541 22.238-16.77 30.454c-14.229 8.216-29.791 7.901-34.76-0.703s2.541-22.238 16.77-30.454z"></path>
<path d="M264.995 449.729c0 7.642-13.32 13.838-29.751 13.838s-29.751-6.195-29.751-13.838c0-7.642 13.32-13.838 29.751-13.838s29.751 6.195 29.751 13.838z"></path>
<path d="M48.582 191.149c4.254-15.871 13.687-27.133 21.068-25.154s9.918 16.448 5.663 32.32c-4.254 15.871-13.687 27.133-21.069 25.154s-9.918-16.448-5.663-32.32z"></path>
<path d="M433.95 319.671c4.252-15.871 13.684-27.134 21.065-25.156s9.918 16.447 5.666 32.318c-4.252 15.871-13.684 27.134-21.065 25.156s-9.918-16.447-5.666-32.318z"></path>
<path d="M437.967 170.206c-6.227-12.8-7.611-25.6-3.113-28.714 4.151-2.768 12.8 5.189 19.027 18.335 6.227 12.8 7.611 25.6 3.113 28.714-4.498 2.768-12.8-5.189-19.027-18.335z"></path>
</svg>
