<?xml version="1.0" encoding="utf-8"?>
<!-- Generated by IcoMoon.io -->
<!DOCTYPE svg PUBLIC "-//W3C//DTD SVG 1.1//EN" "http://www.w3.org/Graphics/SVG/1.1/DTD/svg11.dtd">
<svg version="1.1" xmlns="http://www.w3.org/2000/svg" xmlns:xlink="http://www.w3.org/1999/xlink" width="513" height="512" viewBox="0 0 513 512">
<g id="icomoon-ignore">
    <line stroke-width="1" x1="16" y1="0" x2="16" y2="512" stroke="#449FDB" opacity="0.3"></line>
    <line stroke-width="1" x1="32" y1="0" x2="32" y2="512" stroke="#449FDB" opacity="1"></line>
    <line stroke-width="1" x1="48" y1="0" x2="48" y2="512" stroke="#449FDB" opacity="0.3"></line>
    <line stroke-width="1" x1="64" y1="0" x2="64" y2="512" stroke="#449FDB" opacity="1"></line>
    <line stroke-width="1" x1="80" y1="0" x2="80" y2="512" stroke="#449FDB" opacity="0.3"></line>
    <line stroke-width="1" x1="96" y1="0" x2="96" y2="512" stroke="#449FDB" opacity="1"></line>
    <line stroke-width="1" x1="112" y1="0" x2="112" y2="512" stroke="#449FDB" opacity="0.3"></line>
    <line stroke-width="1" x1="128" y1="0" x2="128" y2="512" stroke="#449FDB" opacity="1"></line>
    <line stroke-width="1" x1="144" y1="0" x2="144" y2="512" stroke="#449FDB" opacity="0.3"></line>
    <line stroke-width="1" x1="160" y1="0" x2="160" y2="512" stroke="#449FDB" opacity="1"></line>
    <line stroke-width="1" x1="176" y1="0" x2="176" y2="512" stroke="#449FDB" opacity="0.3"></line>
    <line stroke-width="1" x1="192" y1="0" x2="192" y2="512" stroke="#449FDB" opacity="1"></line>
    <line stroke-width="1" x1="208" y1="0" x2="208" y2="512" stroke="#449FDB" opacity="0.3"></line>
    <line stroke-width="1" x1="224" y1="0" x2="224" y2="512" stroke="#449FDB" opacity="1"></line>
    <line stroke-width="1" x1="240" y1="0" x2="240" y2="512" stroke="#449FDB" opacity="0.3"></line>
    <line stroke-width="1" x1="256" y1="0" x2="256" y2="512" stroke="#449FDB" opacity="1"></line>
    <line stroke-width="1" x1="272" y1="0" x2="272" y2="512" stroke="#449FDB" opacity="0.3"></line>
    <line stroke-width="1" x1="288" y1="0" x2="288" y2="512" stroke="#449FDB" opacity="1"></line>
    <line stroke-width="1" x1="304" y1="0" x2="304" y2="512" stroke="#449FDB" opacity="0.3"></line>
    <line stroke-width="1" x1="320" y1="0" x2="320" y2="512" stroke="#449FDB" opacity="1"></line>
    <line stroke-width="1" x1="336" y1="0" x2="336" y2="512" stroke="#449FDB" opacity="0.3"></line>
    <line stroke-width="1" x1="352" y1="0" x2="352" y2="512" stroke="#449FDB" opacity="1"></line>
    <line stroke-width="1" x1="368" y1="0" x2="368" y2="512" stroke="#449FDB" opacity="0.3"></line>
    <line stroke-width="1" x1="384" y1="0" x2="384" y2="512" stroke="#449FDB" opacity="1"></line>
    <line stroke-width="1" x1="400" y1="0" x2="400" y2="512" stroke="#449FDB" opacity="0.3"></line>
    <line stroke-width="1" x1="416" y1="0" x2="416" y2="512" stroke="#449FDB" opacity="1"></line>
    <line stroke-width="1" x1="432" y1="0" x2="432" y2="512" stroke="#449FDB" opacity="0.3"></line>
    <line stroke-width="1" x1="448" y1="0" x2="448" y2="512" stroke="#449FDB" opacity="1"></line>
    <line stroke-width="1" x1="464" y1="0" x2="464" y2="512" stroke="#449FDB" opacity="0.3"></line>
    <line stroke-width="1" x1="480" y1="0" x2="480" y2="512" stroke="#449FDB" opacity="1"></line>
    <line stroke-width="1" x1="496" y1="0" x2="496" y2="512" stroke="#449FDB" opacity="0.3"></line>
    <line stroke-width="1" x1="512" y1="0" x2="512" y2="512" stroke="#449FDB" opacity="1"></line>
    <line stroke-width="1" x1="0" y1="16" x2="513" y2="16" stroke="#449FDB" opacity="0.3"></line>
    <line stroke-width="1" x1="0" y1="32" x2="513" y2="32" stroke="#449FDB" opacity="1"></line>
    <line stroke-width="1" x1="0" y1="48" x2="513" y2="48" stroke="#449FDB" opacity="0.3"></line>
    <line stroke-width="1" x1="0" y1="64" x2="513" y2="64" stroke="#449FDB" opacity="1"></line>
    <line stroke-width="1" x1="0" y1="80" x2="513" y2="80" stroke="#449FDB" opacity="0.3"></line>
    <line stroke-width="1" x1="0" y1="96" x2="513" y2="96" stroke="#449FDB" opacity="1"></line>
    <line stroke-width="1" x1="0" y1="112" x2="513" y2="112" stroke="#449FDB" opacity="0.3"></line>
    <line stroke-width="1" x1="0" y1="128" x2="513" y2="128" stroke="#449FDB" opacity="1"></line>
    <line stroke-width="1" x1="0" y1="144" x2="513" y2="144" stroke="#449FDB" opacity="0.3"></line>
    <line stroke-width="1" x1="0" y1="160" x2="513" y2="160" stroke="#449FDB" opacity="1"></line>
    <line stroke-width="1" x1="0" y1="176" x2="513" y2="176" stroke="#449FDB" opacity="0.3"></line>
    <line stroke-width="1" x1="0" y1="192" x2="513" y2="192" stroke="#449FDB" opacity="1"></line>
    <line stroke-width="1" x1="0" y1="208" x2="513" y2="208" stroke="#449FDB" opacity="0.3"></line>
    <line stroke-width="1" x1="0" y1="224" x2="513" y2="224" stroke="#449FDB" opacity="1"></line>
    <line stroke-width="1" x1="0" y1="240" x2="513" y2="240" stroke="#449FDB" opacity="0.3"></line>
    <line stroke-width="1" x1="0" y1="256" x2="513" y2="256" stroke="#449FDB" opacity="1"></line>
    <line stroke-width="1" x1="0" y1="272" x2="513" y2="272" stroke="#449FDB" opacity="0.3"></line>
    <line stroke-width="1" x1="0" y1="288" x2="513" y2="288" stroke="#449FDB" opacity="1"></line>
    <line stroke-width="1" x1="0" y1="304" x2="513" y2="304" stroke="#449FDB" opacity="0.3"></line>
    <line stroke-width="1" x1="0" y1="320" x2="513" y2="320" stroke="#449FDB" opacity="1"></line>
    <line stroke-width="1" x1="0" y1="336" x2="513" y2="336" stroke="#449FDB" opacity="0.3"></line>
    <line stroke-width="1" x1="0" y1="352" x2="513" y2="352" stroke="#449FDB" opacity="1"></line>
    <line stroke-width="1" x1="0" y1="368" x2="513" y2="368" stroke="#449FDB" opacity="0.3"></line>
    <line stroke-width="1" x1="0" y1="384" x2="513" y2="384" stroke="#449FDB" opacity="1"></line>
    <line stroke-width="1" x1="0" y1="400" x2="513" y2="400" stroke="#449FDB" opacity="0.3"></line>
    <line stroke-width="1" x1="0" y1="416" x2="513" y2="416" stroke="#449FDB" opacity="1"></line>
    <line stroke-width="1" x1="0" y1="432" x2="513" y2="432" stroke="#449FDB" opacity="0.3"></line>
    <line stroke-width="1" x1="0" y1="448" x2="513" y2="448" stroke="#449FDB" opacity="1"></line>
    <line stroke-width="1" x1="0" y1="464" x2="513" y2="464" stroke="#449FDB" opacity="0.3"></line>
    <line stroke-width="1" x1="0" y1="480" x2="513" y2="480" stroke="#449FDB" opacity="1"></line>
    <line stroke-width="1" x1="0" y1="496" x2="513" y2="496" stroke="#449FDB" opacity="0.3"></line>
</g>
<path d="M114.591 154.819c0-73.884 59.907-133.791 133.791-133.791s133.791 59.906 133.791 133.791c0 73.884-59.906 133.791-133.791 133.791s-133.791-59.906-133.791-133.791zM96.305 154.819c0 83.983 68.094 152.076 152.076 152.076s152.076-68.094 152.076-152.076c0-83.983-68.094-152.076-152.076-152.076s-152.076 68.094-152.076 152.076z"></path>
<path d="M284.887 49.611c-5.149 5.149-8.163 12.383-8.163 19.875s3.014 14.725 8.163 19.874l12.93-12.93c-1.729-1.73-2.808-4.317-2.808-6.945s1.078-5.215 2.808-6.944l-12.93-12.93z"></path>
<path d="M320.545 100.507c-5.149 5.149-8.163 12.383-8.163 19.874s3.014 14.726 8.163 19.875l12.93-12.93c-1.729-1.73-2.808-4.317-2.808-6.945s1.078-5.215 2.808-6.945l-12.93-12.93z"></path>
<path d="M284.887 134.64c-5.149 5.149-8.163 12.383-8.163 19.875s3.014 14.726 8.163 19.875l12.93-12.93c-1.729-1.73-2.808-4.317-2.808-6.945s1.078-5.215 2.808-6.945l-12.93-12.93z"></path>
<path d="M284.887 219.363c-5.149 5.149-8.163 12.383-8.163 19.875 0 7.341 2.868 14.111 7.889 19.587l13.479-12.356c-2.050-2.236-3.082-4.674-3.082-7.232 0-2.627 1.078-5.215 2.808-6.945l-12.93-12.93z"></path>
<path d="M320.545 185.535c-5.149 5.149-8.163 12.383-8.163 19.875s3.014 14.726 8.163 19.875l12.93-12.93c-1.729-1.73-2.808-4.317-2.808-6.945s1.078-5.215 2.808-6.945l-12.93-12.93z"></path>
<path d="M248.392 432.228l-21.488-88.313c-0.145-0.95-0.409-2.109-0.826-3.452-0.818-2.632-2.087-5.474-3.887-8.459-4.798-7.959-12.636-15.796-24.065-23.070l-9.817 15.427c9.105 5.794 14.923 11.613 18.221 17.083 1.034 1.714 1.701 3.208 2.085 4.445 0.162 0.522 0.24 1.196 0.24 1.196l39.513 162.401 39.537-162.101 0.060-0.704c-0.015 0.183 0.023-0.021 0.19-0.566 0.387-1.264 1.055-2.779 2.088-4.503 3.284-5.486 9.072-11.249 18.135-16.899l-9.673-15.517c-11.47 7.15-19.339 14.986-24.151 23.025-1.8 3.008-3.068 5.88-3.884 8.544-0.413 1.35-0.673 2.514-0.817 3.466l-21.464 88z"></path>
<path d="M354.373 134.64c-5.149 5.149-8.163 12.383-8.163 19.875s3.014 14.726 8.163 19.875l12.93-12.93c-1.729-1.73-2.808-4.317-2.808-6.945s1.078-5.215 2.808-6.945l-12.93-12.93z"></path>
<path d="M171.683 317.926c23.938 11.149 49.974 17.007 76.698 17.007 26.987 0 53.029-5.841 77.003-17.007l-7.721-16.576c-21.571 10.047-44.981 15.298-69.282 15.298-24.035 0-47.44-5.266-68.978-15.298l-7.72 16.576z"></path>
</svg>
