<?xml version="1.0" encoding="utf-8"?>
<!-- Generated by IcoMoon.io -->
<!DOCTYPE svg PUBLIC "-//W3C//DTD SVG 1.1//EN" "http://www.w3.org/Graphics/SVG/1.1/DTD/svg11.dtd">
<svg version="1.1" xmlns="http://www.w3.org/2000/svg" xmlns:xlink="http://www.w3.org/1999/xlink" width="516" height="512" viewBox="0 0 516 512">
<g id="icomoon-ignore">
    <line stroke-width="1" x1="16" y1="0" x2="16" y2="512" stroke="#449FDB" opacity="0.3"></line>
    <line stroke-width="1" x1="32" y1="0" x2="32" y2="512" stroke="#449FDB" opacity="1"></line>
    <line stroke-width="1" x1="48" y1="0" x2="48" y2="512" stroke="#449FDB" opacity="0.3"></line>
    <line stroke-width="1" x1="64" y1="0" x2="64" y2="512" stroke="#449FDB" opacity="1"></line>
    <line stroke-width="1" x1="80" y1="0" x2="80" y2="512" stroke="#449FDB" opacity="0.3"></line>
    <line stroke-width="1" x1="96" y1="0" x2="96" y2="512" stroke="#449FDB" opacity="1"></line>
    <line stroke-width="1" x1="112" y1="0" x2="112" y2="512" stroke="#449FDB" opacity="0.3"></line>
    <line stroke-width="1" x1="128" y1="0" x2="128" y2="512" stroke="#449FDB" opacity="1"></line>
    <line stroke-width="1" x1="144" y1="0" x2="144" y2="512" stroke="#449FDB" opacity="0.3"></line>
    <line stroke-width="1" x1="160" y1="0" x2="160" y2="512" stroke="#449FDB" opacity="1"></line>
    <line stroke-width="1" x1="176" y1="0" x2="176" y2="512" stroke="#449FDB" opacity="0.3"></line>
    <line stroke-width="1" x1="192" y1="0" x2="192" y2="512" stroke="#449FDB" opacity="1"></line>
    <line stroke-width="1" x1="208" y1="0" x2="208" y2="512" stroke="#449FDB" opacity="0.3"></line>
    <line stroke-width="1" x1="224" y1="0" x2="224" y2="512" stroke="#449FDB" opacity="1"></line>
    <line stroke-width="1" x1="240" y1="0" x2="240" y2="512" stroke="#449FDB" opacity="0.3"></line>
    <line stroke-width="1" x1="256" y1="0" x2="256" y2="512" stroke="#449FDB" opacity="1"></line>
    <line stroke-width="1" x1="272" y1="0" x2="272" y2="512" stroke="#449FDB" opacity="0.3"></line>
    <line stroke-width="1" x1="288" y1="0" x2="288" y2="512" stroke="#449FDB" opacity="1"></line>
    <line stroke-width="1" x1="304" y1="0" x2="304" y2="512" stroke="#449FDB" opacity="0.3"></line>
    <line stroke-width="1" x1="320" y1="0" x2="320" y2="512" stroke="#449FDB" opacity="1"></line>
    <line stroke-width="1" x1="336" y1="0" x2="336" y2="512" stroke="#449FDB" opacity="0.3"></line>
    <line stroke-width="1" x1="352" y1="0" x2="352" y2="512" stroke="#449FDB" opacity="1"></line>
    <line stroke-width="1" x1="368" y1="0" x2="368" y2="512" stroke="#449FDB" opacity="0.3"></line>
    <line stroke-width="1" x1="384" y1="0" x2="384" y2="512" stroke="#449FDB" opacity="1"></line>
    <line stroke-width="1" x1="400" y1="0" x2="400" y2="512" stroke="#449FDB" opacity="0.3"></line>
    <line stroke-width="1" x1="416" y1="0" x2="416" y2="512" stroke="#449FDB" opacity="1"></line>
    <line stroke-width="1" x1="432" y1="0" x2="432" y2="512" stroke="#449FDB" opacity="0.3"></line>
    <line stroke-width="1" x1="448" y1="0" x2="448" y2="512" stroke="#449FDB" opacity="1"></line>
    <line stroke-width="1" x1="464" y1="0" x2="464" y2="512" stroke="#449FDB" opacity="0.3"></line>
    <line stroke-width="1" x1="480" y1="0" x2="480" y2="512" stroke="#449FDB" opacity="1"></line>
    <line stroke-width="1" x1="496" y1="0" x2="496" y2="512" stroke="#449FDB" opacity="0.3"></line>
    <line stroke-width="1" x1="512" y1="0" x2="512" y2="512" stroke="#449FDB" opacity="1"></line>
    <line stroke-width="1" x1="0" y1="16" x2="516" y2="16" stroke="#449FDB" opacity="0.3"></line>
    <line stroke-width="1" x1="0" y1="32" x2="516" y2="32" stroke="#449FDB" opacity="1"></line>
    <line stroke-width="1" x1="0" y1="48" x2="516" y2="48" stroke="#449FDB" opacity="0.3"></line>
    <line stroke-width="1" x1="0" y1="64" x2="516" y2="64" stroke="#449FDB" opacity="1"></line>
    <line stroke-width="1" x1="0" y1="80" x2="516" y2="80" stroke="#449FDB" opacity="0.3"></line>
    <line stroke-width="1" x1="0" y1="96" x2="516" y2="96" stroke="#449FDB" opacity="1"></line>
    <line stroke-width="1" x1="0" y1="112" x2="516" y2="112" stroke="#449FDB" opacity="0.3"></line>
    <line stroke-width="1" x1="0" y1="128" x2="516" y2="128" stroke="#449FDB" opacity="1"></line>
    <line stroke-width="1" x1="0" y1="144" x2="516" y2="144" stroke="#449FDB" opacity="0.3"></line>
    <line stroke-width="1" x1="0" y1="160" x2="516" y2="160" stroke="#449FDB" opacity="1"></line>
    <line stroke-width="1" x1="0" y1="176" x2="516" y2="176" stroke="#449FDB" opacity="0.3"></line>
    <line stroke-width="1" x1="0" y1="192" x2="516" y2="192" stroke="#449FDB" opacity="1"></line>
    <line stroke-width="1" x1="0" y1="208" x2="516" y2="208" stroke="#449FDB" opacity="0.3"></line>
    <line stroke-width="1" x1="0" y1="224" x2="516" y2="224" stroke="#449FDB" opacity="1"></line>
    <line stroke-width="1" x1="0" y1="240" x2="516" y2="240" stroke="#449FDB" opacity="0.3"></line>
    <line stroke-width="1" x1="0" y1="256" x2="516" y2="256" stroke="#449FDB" opacity="1"></line>
    <line stroke-width="1" x1="0" y1="272" x2="516" y2="272" stroke="#449FDB" opacity="0.3"></line>
    <line stroke-width="1" x1="0" y1="288" x2="516" y2="288" stroke="#449FDB" opacity="1"></line>
    <line stroke-width="1" x1="0" y1="304" x2="516" y2="304" stroke="#449FDB" opacity="0.3"></line>
    <line stroke-width="1" x1="0" y1="320" x2="516" y2="320" stroke="#449FDB" opacity="1"></line>
    <line stroke-width="1" x1="0" y1="336" x2="516" y2="336" stroke="#449FDB" opacity="0.3"></line>
    <line stroke-width="1" x1="0" y1="352" x2="516" y2="352" stroke="#449FDB" opacity="1"></line>
    <line stroke-width="1" x1="0" y1="368" x2="516" y2="368" stroke="#449FDB" opacity="0.3"></line>
    <line stroke-width="1" x1="0" y1="384" x2="516" y2="384" stroke="#449FDB" opacity="1"></line>
    <line stroke-width="1" x1="0" y1="400" x2="516" y2="400" stroke="#449FDB" opacity="0.3"></line>
    <line stroke-width="1" x1="0" y1="416" x2="516" y2="416" stroke="#449FDB" opacity="1"></line>
    <line stroke-width="1" x1="0" y1="432" x2="516" y2="432" stroke="#449FDB" opacity="0.3"></line>
    <line stroke-width="1" x1="0" y1="448" x2="516" y2="448" stroke="#449FDB" opacity="1"></line>
    <line stroke-width="1" x1="0" y1="464" x2="516" y2="464" stroke="#449FDB" opacity="0.3"></line>
    <line stroke-width="1" x1="0" y1="480" x2="516" y2="480" stroke="#449FDB" opacity="1"></line>
    <line stroke-width="1" x1="0" y1="496" x2="516" y2="496" stroke="#449FDB" opacity="0.3"></line>
</g>
<path d="M35.84 511.659c-5.462 0-10.922-2.048-14.678-6.144l-12.288-12.288c-4.096-4.096-6.144-9.216-6.144-14.678s2.048-10.923 6.144-14.678l58.71-58.709c4.096-4.096 9.216-6.144 14.677-6.144s10.922 2.048 14.677 6.144l12.288 12.288c4.096 4.096 6.144 9.216 6.144 14.678s-2.048 10.923-6.144 14.678l-58.709 58.709c-3.755 4.096-9.216 6.144-14.678 6.144zM24.576 478.55l10.922 10.923 57.685-57.685-10.922-10.923-57.685 57.685z"></path>
<path d="M353.962 217.77c-1.707 0-3.755-0.683-5.12-2.048l-50.517-50.518c-2.731-2.731-2.731-7.51 0-10.24s7.51-2.731 10.24 0l50.517 50.517c2.731 2.731 2.731 7.51 0 10.24-1.365 1.365-3.072 2.048-5.12 2.048z"></path>
<path d="M375.125 196.608c-1.707 0-3.755-0.683-5.12-2.048l-50.517-50.517c-2.731-2.731-2.731-7.51 0-10.24s7.51-2.731 10.24 0l50.517 50.517c2.731 2.731 2.731 7.51 0 10.24-1.365 1.365-3.072 2.048-5.12 2.048z"></path>
<path d="M308.224 234.496c-1.707 0-3.755-0.683-5.12-2.048-2.731-2.731-2.731-7.51 0-10.24l82.603-82.944c2.731-2.731 7.51-2.731 10.24 0s2.731 7.51 0 10.24l-82.603 82.603c-1.365 1.707-3.413 2.389-5.12 2.389z"></path>
<path d="M287.062 213.333c-1.707 0-3.755-0.683-5.12-2.048-2.731-2.731-2.731-7.51 0-10.24l82.603-82.603c2.731-2.731 7.51-2.731 10.24 0s2.731 7.51 0 10.24l-82.603 82.602c-1.365 1.365-3.413 2.048-5.12 2.048z"></path>
<path d="M264.534 340.31c-34.133 0-60.757-7.851-71.68-18.432l-0.341-0.341c-11.947-11.947-18.774-40.277-18.432-74.070 0.341-34.475 9.558-123.222 87.722-197.974 108.544-103.766 206.506-5.12 207.19-4.096l0.341 0.342c0.683 0.682 87.040 86.016 13.654 186.026-3.413 4.779-10.24 5.803-15.36 2.389-4.779-3.413-5.803-10.24-2.389-15.36 62.123-84.65-8.192-154.624-11.264-157.696l-0.341-0.342c-3.413-3.413-83.968-83.968-176.81 4.779-72.022 68.266-80.896 149.846-81.238 181.93-0.341 33.45 7.168 53.248 12.288 58.368l0.341 0.341c14.678 14.678 107.862 27.307 195.925-31.402 5.12-3.413 11.947-2.048 15.019 3.072 3.413 5.12 2.048 11.947-3.072 15.019-51.541 34.816-107.52 47.445-151.552 47.445z"></path>
<path d="M102.058 422.912c-2.731 0-5.462-1.024-7.85-3.072-4.096-4.096-4.096-11.264 0-15.36l53.248-53.248c3.072-4.096 22.528-33.792 26.624-117.077 0.341-6.144 5.462-10.582 11.264-10.24 6.144 0.341 10.582 5.462 10.24 11.264-4.438 89.43-26.624 123.221-31.061 129.365-0.683 0.683-1.024 1.365-1.707 2.048l-52.906 53.248c-2.048 2.048-5.12 3.072-7.85 3.072z"></path>
<path d="M102.058 422.912c-2.731 0-5.462-1.024-7.85-3.072-4.096-4.096-4.096-11.264 0-15.36l53.59-53.589c0.683-0.683 1.365-1.365 2.389-2.048 5.803-4.096 39.594-25.259 128.683-31.062 6.144-0.341 11.264 4.096 11.606 10.24s-4.096 11.264-10.24 11.606c-82.944 5.12-112.981 23.894-117.077 26.624l-53.248 53.589c-2.048 2.048-5.12 3.072-7.85 3.072z"></path>
<path d="M260.438 124.246c-1.365 0-3.072-0.341-4.438-1.365-3.072-2.389-3.755-6.826-1.365-10.24 8.192-10.922 17.408-21.162 27.307-30.72 52.224-50.176 98.986-43.691 129.365-29.696 3.755 1.706 5.12 6.144 3.413 9.557-1.707 3.755-6.144 5.12-9.558 3.414-25.942-12.288-66.56-17.408-112.981 26.965-9.216 8.874-18.091 18.773-25.6 29.013-1.707 2.048-3.755 3.072-6.144 3.072z"></path>
<path d="M268.63 305.834c-12.288 0-22.869-1.365-30.72-3.413-3.755-1.024-6.144-5.12-5.12-8.875s5.12-6.144 8.875-5.12c19.114 5.12 56.662 5.12 98.987-11.606 3.755-1.365 7.851 0.341 9.558 4.096 1.365 3.755-0.341 7.851-4.096 9.558-29.014 11.264-55.978 15.36-77.483 15.36z"></path>
<path d="M456.022 328.363c-32.426 0-59.050-26.282-59.050-59.050s26.283-59.050 59.050-59.050c32.426 0 59.050 26.282 59.050 59.050s-26.624 59.050-59.050 59.050zM456.022 232.107c-20.48 0-37.205 16.726-37.205 37.206s16.726 37.206 37.206 37.206c20.48 0 37.206-16.726 37.206-37.206s-16.726-37.206-37.206-37.206z"></path>
<path d="M454.315 258.389c0 5.090-4.126 9.216-9.216 9.216s-9.216-4.126-9.216-9.216c0-5.090 4.126-9.216 9.216-9.216s9.216 4.126 9.216 9.216z"></path>
<path d="M445.099 271.019c-7.168 0-12.971-5.803-12.971-12.971s5.803-12.97 12.971-12.97c7.168 0 12.971 5.803 12.971 12.97s-5.803 12.971-12.971 12.971zM445.099 252.587c-3.072 0-5.462 2.389-5.462 5.462s2.389 5.462 5.462 5.462c3.072 0 5.462-2.389 5.462-5.462 0-2.731-2.389-5.462-5.462-5.462z"></path>
<path d="M476.502 280.235c0 5.090-4.126 9.216-9.216 9.216s-9.216-4.126-9.216-9.216c0-5.090 4.126-9.216 9.216-9.216s9.216 4.126 9.216 9.216z"></path>
<path d="M467.286 293.205c-7.168 0-12.971-5.803-12.971-12.971s5.803-12.971 12.971-12.971c7.168 0 12.971 5.803 12.971 12.971s-6.144 12.971-12.971 12.971zM467.286 274.774c-3.072 0-5.462 2.389-5.462 5.462s2.389 5.462 5.462 5.462c3.072 0 5.462-2.389 5.462-5.462s-2.389-5.462-5.462-5.462z"></path>
</svg>
