<?xml version="1.0" encoding="utf-8"?>
<!-- Generated by IcoMoon.io -->
<!DOCTYPE svg PUBLIC "-//W3C//DTD SVG 1.1//EN" "http://www.w3.org/Graphics/SVG/1.1/DTD/svg11.dtd">
<svg version="1.1" xmlns="http://www.w3.org/2000/svg" xmlns:xlink="http://www.w3.org/1999/xlink" width="512" height="512" viewBox="0 0 512 512">
<g id="icomoon-ignore">
    <line stroke-width="1" x1="16" y1="0" x2="16" y2="512" stroke="#449FDB" opacity="0.3"></line>
    <line stroke-width="1" x1="32" y1="0" x2="32" y2="512" stroke="#449FDB" opacity="1"></line>
    <line stroke-width="1" x1="48" y1="0" x2="48" y2="512" stroke="#449FDB" opacity="0.3"></line>
    <line stroke-width="1" x1="64" y1="0" x2="64" y2="512" stroke="#449FDB" opacity="1"></line>
    <line stroke-width="1" x1="80" y1="0" x2="80" y2="512" stroke="#449FDB" opacity="0.3"></line>
    <line stroke-width="1" x1="96" y1="0" x2="96" y2="512" stroke="#449FDB" opacity="1"></line>
    <line stroke-width="1" x1="112" y1="0" x2="112" y2="512" stroke="#449FDB" opacity="0.3"></line>
    <line stroke-width="1" x1="128" y1="0" x2="128" y2="512" stroke="#449FDB" opacity="1"></line>
    <line stroke-width="1" x1="144" y1="0" x2="144" y2="512" stroke="#449FDB" opacity="0.3"></line>
    <line stroke-width="1" x1="160" y1="0" x2="160" y2="512" stroke="#449FDB" opacity="1"></line>
    <line stroke-width="1" x1="176" y1="0" x2="176" y2="512" stroke="#449FDB" opacity="0.3"></line>
    <line stroke-width="1" x1="192" y1="0" x2="192" y2="512" stroke="#449FDB" opacity="1"></line>
    <line stroke-width="1" x1="208" y1="0" x2="208" y2="512" stroke="#449FDB" opacity="0.3"></line>
    <line stroke-width="1" x1="224" y1="0" x2="224" y2="512" stroke="#449FDB" opacity="1"></line>
    <line stroke-width="1" x1="240" y1="0" x2="240" y2="512" stroke="#449FDB" opacity="0.3"></line>
    <line stroke-width="1" x1="256" y1="0" x2="256" y2="512" stroke="#449FDB" opacity="1"></line>
    <line stroke-width="1" x1="272" y1="0" x2="272" y2="512" stroke="#449FDB" opacity="0.3"></line>
    <line stroke-width="1" x1="288" y1="0" x2="288" y2="512" stroke="#449FDB" opacity="1"></line>
    <line stroke-width="1" x1="304" y1="0" x2="304" y2="512" stroke="#449FDB" opacity="0.3"></line>
    <line stroke-width="1" x1="320" y1="0" x2="320" y2="512" stroke="#449FDB" opacity="1"></line>
    <line stroke-width="1" x1="336" y1="0" x2="336" y2="512" stroke="#449FDB" opacity="0.3"></line>
    <line stroke-width="1" x1="352" y1="0" x2="352" y2="512" stroke="#449FDB" opacity="1"></line>
    <line stroke-width="1" x1="368" y1="0" x2="368" y2="512" stroke="#449FDB" opacity="0.3"></line>
    <line stroke-width="1" x1="384" y1="0" x2="384" y2="512" stroke="#449FDB" opacity="1"></line>
    <line stroke-width="1" x1="400" y1="0" x2="400" y2="512" stroke="#449FDB" opacity="0.3"></line>
    <line stroke-width="1" x1="416" y1="0" x2="416" y2="512" stroke="#449FDB" opacity="1"></line>
    <line stroke-width="1" x1="432" y1="0" x2="432" y2="512" stroke="#449FDB" opacity="0.3"></line>
    <line stroke-width="1" x1="448" y1="0" x2="448" y2="512" stroke="#449FDB" opacity="1"></line>
    <line stroke-width="1" x1="464" y1="0" x2="464" y2="512" stroke="#449FDB" opacity="0.3"></line>
    <line stroke-width="1" x1="480" y1="0" x2="480" y2="512" stroke="#449FDB" opacity="1"></line>
    <line stroke-width="1" x1="496" y1="0" x2="496" y2="512" stroke="#449FDB" opacity="0.3"></line>
    <line stroke-width="1" x1="0" y1="16" x2="512" y2="16" stroke="#449FDB" opacity="0.3"></line>
    <line stroke-width="1" x1="0" y1="32" x2="512" y2="32" stroke="#449FDB" opacity="1"></line>
    <line stroke-width="1" x1="0" y1="48" x2="512" y2="48" stroke="#449FDB" opacity="0.3"></line>
    <line stroke-width="1" x1="0" y1="64" x2="512" y2="64" stroke="#449FDB" opacity="1"></line>
    <line stroke-width="1" x1="0" y1="80" x2="512" y2="80" stroke="#449FDB" opacity="0.3"></line>
    <line stroke-width="1" x1="0" y1="96" x2="512" y2="96" stroke="#449FDB" opacity="1"></line>
    <line stroke-width="1" x1="0" y1="112" x2="512" y2="112" stroke="#449FDB" opacity="0.3"></line>
    <line stroke-width="1" x1="0" y1="128" x2="512" y2="128" stroke="#449FDB" opacity="1"></line>
    <line stroke-width="1" x1="0" y1="144" x2="512" y2="144" stroke="#449FDB" opacity="0.3"></line>
    <line stroke-width="1" x1="0" y1="160" x2="512" y2="160" stroke="#449FDB" opacity="1"></line>
    <line stroke-width="1" x1="0" y1="176" x2="512" y2="176" stroke="#449FDB" opacity="0.3"></line>
    <line stroke-width="1" x1="0" y1="192" x2="512" y2="192" stroke="#449FDB" opacity="1"></line>
    <line stroke-width="1" x1="0" y1="208" x2="512" y2="208" stroke="#449FDB" opacity="0.3"></line>
    <line stroke-width="1" x1="0" y1="224" x2="512" y2="224" stroke="#449FDB" opacity="1"></line>
    <line stroke-width="1" x1="0" y1="240" x2="512" y2="240" stroke="#449FDB" opacity="0.3"></line>
    <line stroke-width="1" x1="0" y1="256" x2="512" y2="256" stroke="#449FDB" opacity="1"></line>
    <line stroke-width="1" x1="0" y1="272" x2="512" y2="272" stroke="#449FDB" opacity="0.3"></line>
    <line stroke-width="1" x1="0" y1="288" x2="512" y2="288" stroke="#449FDB" opacity="1"></line>
    <line stroke-width="1" x1="0" y1="304" x2="512" y2="304" stroke="#449FDB" opacity="0.3"></line>
    <line stroke-width="1" x1="0" y1="320" x2="512" y2="320" stroke="#449FDB" opacity="1"></line>
    <line stroke-width="1" x1="0" y1="336" x2="512" y2="336" stroke="#449FDB" opacity="0.3"></line>
    <line stroke-width="1" x1="0" y1="352" x2="512" y2="352" stroke="#449FDB" opacity="1"></line>
    <line stroke-width="1" x1="0" y1="368" x2="512" y2="368" stroke="#449FDB" opacity="0.3"></line>
    <line stroke-width="1" x1="0" y1="384" x2="512" y2="384" stroke="#449FDB" opacity="1"></line>
    <line stroke-width="1" x1="0" y1="400" x2="512" y2="400" stroke="#449FDB" opacity="0.3"></line>
    <line stroke-width="1" x1="0" y1="416" x2="512" y2="416" stroke="#449FDB" opacity="1"></line>
    <line stroke-width="1" x1="0" y1="432" x2="512" y2="432" stroke="#449FDB" opacity="0.3"></line>
    <line stroke-width="1" x1="0" y1="448" x2="512" y2="448" stroke="#449FDB" opacity="1"></line>
    <line stroke-width="1" x1="0" y1="464" x2="512" y2="464" stroke="#449FDB" opacity="0.3"></line>
    <line stroke-width="1" x1="0" y1="480" x2="512" y2="480" stroke="#449FDB" opacity="1"></line>
    <line stroke-width="1" x1="0" y1="496" x2="512" y2="496" stroke="#449FDB" opacity="0.3"></line>
</g>
<path d="M398.001 275.397c-66.453 55.061-149.094 62.774-193.525 18.343-48.779-48.779-33.921-143.075 35.35-210.473 70.181-68.284 164.3-83.686 210.534-35.673 38.411 38.413 37.372 105.381-1.328 169.236l16.841 10.207c42.952-70.87 44.142-147.635-1.458-193.235-54.964-57.081-161.186-39.699-238.321 35.352-76.368 74.304-93.163 180.891-35.542 238.512 52.589 52.589 146.478 43.826 220.013-17.103l-12.564-15.163z"></path>
<path d="M156.43 341.785c-2.688 1.272-5.329 2.597-7.925 3.973-15.184 8.049-25.983 16.2-32.495 22.487-0.927 0.896-1.767 1.753-2.522 2.567l13.915 13.914c0.814-0.753 1.671-1.594 2.567-2.522 6.286-6.512 14.438-17.311 22.487-32.495 1.376-2.596 2.701-5.237 3.973-7.925 15.256-32.238 22.895-71.137 19.393-116.669l-19.635 1.511c3.5 45.507-4.955 83.349-21.131 113.861-4.742 8.944-9.799 16.541-14.823 22.801-1.671 2.082-3.102 3.735-4.225 4.957-0.844 0.92-1.516 1.596-1.986 2.031l13.915 13.914c0.435-0.47 1.112-1.142 2.032-1.986 1.223-1.124 2.875-2.555 4.958-4.226 6.26-5.024 13.857-10.081 22.801-14.822 30.512-16.175 68.353-24.631 113.861-21.13l1.51-19.635c-45.532-3.502-84.431 4.137-116.669 19.393z"></path>
<path d="M21.198 492.772c3.986 4.493 10.241 7.296 16.808 7.296s12.822-2.803 17.194-7.704l76.415-76.392c4.493-3.986 7.296-10.241 7.296-16.808s-2.803-12.822-7.703-17.194l-13.376-13.399c-3.986-4.493-10.241-7.296-16.808-7.296s-12.823 2.803-17.194 7.704l-76.415 76.392c-4.492 3.986-7.295 10.241-7.295 16.808 0 6.461 2.712 12.62 7.466 16.98l13.614 13.613zM20.93 464.676c-0.712-0.635-1.119-1.544-1.119-2.498s0.407-1.863 1.119-2.498l77.208-77.185c1.021-1.12 1.93-1.527 2.884-1.527s1.863 0.407 2.499 1.12l14.17 14.193c1.121 1.021 1.528 1.93 1.528 2.884s-0.407 1.863-1.12 2.498l-77.208 77.185c-1.021 1.12-1.929 1.527-2.884 1.527s-1.863-0.407-2.498-1.12l-14.17-14.193-0.408-0.385z"></path>
<path d="M241.119 145.697c7.232-12.044 16.212-22.948 26.645-32.355 29.662-32.127 71.433-49.532 114.679-47.967l0.356-9.84c-46.117-1.669-90.662 16.892-121.951 50.813-10.835 9.742-20.438 21.401-28.171 34.281l8.441 5.069z"></path>
<path d="M369.661 247.657c-24.442 19.958-54.413 31.946-85.877 34.351l0.75 9.817c33.47-2.558 65.353-15.312 91.354-36.541l-6.228-7.627z"></path>
<path d="M270.832 148.613l80.738 80.738 6.962-6.963-80.738-80.739z"></path>
<path d="M304.31 115.136l80.738 80.739 6.962-6.963-80.738-80.739z"></path>
<path d="M307.334 233.291l80.738-80.738-6.962-6.963-80.738 80.739z"></path>
<path d="M273.861 197.84l80.541-80.739-6.971-6.954-80.541 80.739z"></path>
<path d="M492.344 308.942c-9.26-8.764-14.418-21.013-14.216-33.762 0.329-11.858 4.776-23.291 12.582-32.3l-7.441-6.448c-9.296 10.727-14.592 24.343-14.986 38.534-0.248 15.567 6.026 30.466 17.291 41.127l6.768-7.151z"></path>
<path d="M416.69 243.266c8.893 8.245 14.017 19.775 14.178 31.902 0.197 12.123-4.95 23.704-14.070 31.673l6.478 7.414c11.301-9.875 17.68-24.227 17.437-39.233-0.197-14.806-6.46-28.899-17.329-38.976l-6.695 7.22z"></path>
<path d="M453.514 332.209c31.539 0 57.108-25.568 57.108-57.108s-25.568-57.108-57.108-57.108c-31.539 0-57.108 25.568-57.108 57.108s25.568 57.108 57.108 57.108zM453.514 312.517c-20.664 0-37.416-16.752-37.416-37.416s16.752-37.416 37.416-37.416c20.664 0 37.416 16.751 37.416 37.416s-16.752 37.416-37.416 37.416z"></path>
</svg>
