<?xml version="1.0" encoding="utf-8"?>
<!-- Generated by IcoMoon.io -->
<!DOCTYPE svg PUBLIC "-//W3C//DTD SVG 1.1//EN" "http://www.w3.org/Graphics/SVG/1.1/DTD/svg11.dtd">
<svg version="1.1" xmlns="http://www.w3.org/2000/svg" xmlns:xlink="http://www.w3.org/1999/xlink" width="512" height="512" viewBox="0 0 512 512">
<g id="icomoon-ignore">
    <line stroke-width="1" x1="16" y1="0" x2="16" y2="512" stroke="#449FDB" opacity="0.3"></line>
    <line stroke-width="1" x1="32" y1="0" x2="32" y2="512" stroke="#449FDB" opacity="1"></line>
    <line stroke-width="1" x1="48" y1="0" x2="48" y2="512" stroke="#449FDB" opacity="0.3"></line>
    <line stroke-width="1" x1="64" y1="0" x2="64" y2="512" stroke="#449FDB" opacity="1"></line>
    <line stroke-width="1" x1="80" y1="0" x2="80" y2="512" stroke="#449FDB" opacity="0.3"></line>
    <line stroke-width="1" x1="96" y1="0" x2="96" y2="512" stroke="#449FDB" opacity="1"></line>
    <line stroke-width="1" x1="112" y1="0" x2="112" y2="512" stroke="#449FDB" opacity="0.3"></line>
    <line stroke-width="1" x1="128" y1="0" x2="128" y2="512" stroke="#449FDB" opacity="1"></line>
    <line stroke-width="1" x1="144" y1="0" x2="144" y2="512" stroke="#449FDB" opacity="0.3"></line>
    <line stroke-width="1" x1="160" y1="0" x2="160" y2="512" stroke="#449FDB" opacity="1"></line>
    <line stroke-width="1" x1="176" y1="0" x2="176" y2="512" stroke="#449FDB" opacity="0.3"></line>
    <line stroke-width="1" x1="192" y1="0" x2="192" y2="512" stroke="#449FDB" opacity="1"></line>
    <line stroke-width="1" x1="208" y1="0" x2="208" y2="512" stroke="#449FDB" opacity="0.3"></line>
    <line stroke-width="1" x1="224" y1="0" x2="224" y2="512" stroke="#449FDB" opacity="1"></line>
    <line stroke-width="1" x1="240" y1="0" x2="240" y2="512" stroke="#449FDB" opacity="0.3"></line>
    <line stroke-width="1" x1="256" y1="0" x2="256" y2="512" stroke="#449FDB" opacity="1"></line>
    <line stroke-width="1" x1="272" y1="0" x2="272" y2="512" stroke="#449FDB" opacity="0.3"></line>
    <line stroke-width="1" x1="288" y1="0" x2="288" y2="512" stroke="#449FDB" opacity="1"></line>
    <line stroke-width="1" x1="304" y1="0" x2="304" y2="512" stroke="#449FDB" opacity="0.3"></line>
    <line stroke-width="1" x1="320" y1="0" x2="320" y2="512" stroke="#449FDB" opacity="1"></line>
    <line stroke-width="1" x1="336" y1="0" x2="336" y2="512" stroke="#449FDB" opacity="0.3"></line>
    <line stroke-width="1" x1="352" y1="0" x2="352" y2="512" stroke="#449FDB" opacity="1"></line>
    <line stroke-width="1" x1="368" y1="0" x2="368" y2="512" stroke="#449FDB" opacity="0.3"></line>
    <line stroke-width="1" x1="384" y1="0" x2="384" y2="512" stroke="#449FDB" opacity="1"></line>
    <line stroke-width="1" x1="400" y1="0" x2="400" y2="512" stroke="#449FDB" opacity="0.3"></line>
    <line stroke-width="1" x1="416" y1="0" x2="416" y2="512" stroke="#449FDB" opacity="1"></line>
    <line stroke-width="1" x1="432" y1="0" x2="432" y2="512" stroke="#449FDB" opacity="0.3"></line>
    <line stroke-width="1" x1="448" y1="0" x2="448" y2="512" stroke="#449FDB" opacity="1"></line>
    <line stroke-width="1" x1="464" y1="0" x2="464" y2="512" stroke="#449FDB" opacity="0.3"></line>
    <line stroke-width="1" x1="480" y1="0" x2="480" y2="512" stroke="#449FDB" opacity="1"></line>
    <line stroke-width="1" x1="496" y1="0" x2="496" y2="512" stroke="#449FDB" opacity="0.3"></line>
    <line stroke-width="1" x1="0" y1="16" x2="512" y2="16" stroke="#449FDB" opacity="0.3"></line>
    <line stroke-width="1" x1="0" y1="32" x2="512" y2="32" stroke="#449FDB" opacity="1"></line>
    <line stroke-width="1" x1="0" y1="48" x2="512" y2="48" stroke="#449FDB" opacity="0.3"></line>
    <line stroke-width="1" x1="0" y1="64" x2="512" y2="64" stroke="#449FDB" opacity="1"></line>
    <line stroke-width="1" x1="0" y1="80" x2="512" y2="80" stroke="#449FDB" opacity="0.3"></line>
    <line stroke-width="1" x1="0" y1="96" x2="512" y2="96" stroke="#449FDB" opacity="1"></line>
    <line stroke-width="1" x1="0" y1="112" x2="512" y2="112" stroke="#449FDB" opacity="0.3"></line>
    <line stroke-width="1" x1="0" y1="128" x2="512" y2="128" stroke="#449FDB" opacity="1"></line>
    <line stroke-width="1" x1="0" y1="144" x2="512" y2="144" stroke="#449FDB" opacity="0.3"></line>
    <line stroke-width="1" x1="0" y1="160" x2="512" y2="160" stroke="#449FDB" opacity="1"></line>
    <line stroke-width="1" x1="0" y1="176" x2="512" y2="176" stroke="#449FDB" opacity="0.3"></line>
    <line stroke-width="1" x1="0" y1="192" x2="512" y2="192" stroke="#449FDB" opacity="1"></line>
    <line stroke-width="1" x1="0" y1="208" x2="512" y2="208" stroke="#449FDB" opacity="0.3"></line>
    <line stroke-width="1" x1="0" y1="224" x2="512" y2="224" stroke="#449FDB" opacity="1"></line>
    <line stroke-width="1" x1="0" y1="240" x2="512" y2="240" stroke="#449FDB" opacity="0.3"></line>
    <line stroke-width="1" x1="0" y1="256" x2="512" y2="256" stroke="#449FDB" opacity="1"></line>
    <line stroke-width="1" x1="0" y1="272" x2="512" y2="272" stroke="#449FDB" opacity="0.3"></line>
    <line stroke-width="1" x1="0" y1="288" x2="512" y2="288" stroke="#449FDB" opacity="1"></line>
    <line stroke-width="1" x1="0" y1="304" x2="512" y2="304" stroke="#449FDB" opacity="0.3"></line>
    <line stroke-width="1" x1="0" y1="320" x2="512" y2="320" stroke="#449FDB" opacity="1"></line>
    <line stroke-width="1" x1="0" y1="336" x2="512" y2="336" stroke="#449FDB" opacity="0.3"></line>
    <line stroke-width="1" x1="0" y1="352" x2="512" y2="352" stroke="#449FDB" opacity="1"></line>
    <line stroke-width="1" x1="0" y1="368" x2="512" y2="368" stroke="#449FDB" opacity="0.3"></line>
    <line stroke-width="1" x1="0" y1="384" x2="512" y2="384" stroke="#449FDB" opacity="1"></line>
    <line stroke-width="1" x1="0" y1="400" x2="512" y2="400" stroke="#449FDB" opacity="0.3"></line>
    <line stroke-width="1" x1="0" y1="416" x2="512" y2="416" stroke="#449FDB" opacity="1"></line>
    <line stroke-width="1" x1="0" y1="432" x2="512" y2="432" stroke="#449FDB" opacity="0.3"></line>
    <line stroke-width="1" x1="0" y1="448" x2="512" y2="448" stroke="#449FDB" opacity="1"></line>
    <line stroke-width="1" x1="0" y1="464" x2="512" y2="464" stroke="#449FDB" opacity="0.3"></line>
    <line stroke-width="1" x1="0" y1="480" x2="512" y2="480" stroke="#449FDB" opacity="1"></line>
    <line stroke-width="1" x1="0" y1="496" x2="512" y2="496" stroke="#449FDB" opacity="0.3"></line>
</g>
<path d="M256 16.864c65.947 0 125.811 26.89 169.028 70.109s70.108 103.081 70.108 169.027-26.89 125.811-70.108 169.028c-43.218 43.218-103.081 70.108-169.028 70.108s-125.811-26.89-169.028-70.108-70.109-103.081-70.109-169.028c0-65.947 26.891-125.811 70.109-169.028s103.081-70.109 169.028-70.109v0zM411.262 100.737c-39.695-39.696-94.438-64.346-155.262-64.346-60.504 0-115.567 24.65-155.262 64.346-39.377 39.695-64.025 94.758-64.025 155.262s24.65 115.567 64.346 154.942 94.438 64.346 155.262 64.346c60.504 0 115.567-24.65 155.262-64.346s64.346-94.438 64.346-154.942-25.289-115.567-64.666-155.262z"></path>
<path d="M265.923 255.040c0.32 5.443-3.521 10.244-8.964 10.564s-10.244-3.521-10.565-8.964c-4.162-47.060 4.162-87.715 24.65-122.609 20.488-34.573 52.821-62.745 97.32-84.834 4.801-2.24 10.885-0.321 13.125 4.483s0.32 10.885-4.483 13.126c-40.976 20.168-70.428 45.779-88.995 77.151s-25.93 68.507-22.089 111.084z"></path>
<path d="M251.838 264.964c-4.802-2.24-7.043-8.003-4.802-13.125 2.24-4.802 8.004-7.043 13.125-4.802 42.577 19.848 73.95 47.379 93.797 82.593 19.849 34.894 28.171 77.15 24.65 126.451-0.32 5.442-5.122 9.604-10.565 9.284s-9.604-5.122-9.284-10.565c3.202-45.459-4.483-83.873-22.089-115.567-17.606-31.373-45.779-56.023-84.834-74.271z"></path>
<path d="M250.237 247.996c4.482-3.202 10.564-1.922 13.765 2.561s1.921 10.565-2.561 13.765c-38.736 26.89-78.112 40.337-118.447 40.016-40.016-0.32-80.673-14.406-121.969-41.938-4.483-2.882-5.763-8.964-2.561-13.765 2.881-4.482 8.963-5.763 13.765-2.561 37.776 25.29 74.91 38.096 111.085 38.415s71.708-11.845 106.923-36.495z"></path>
<path d="M150.998 292.175c1.28 5.442-2.24 10.565-7.683 11.845s-10.565-2.24-11.845-7.683c-11.845-54.422-8.643-105.002 8.964-151.421 17.607-46.098 49.94-88.035 96.999-125.49 4.162-3.521 10.244-2.561 13.765 1.601s2.561 10.244-1.601 13.765c-44.178 35.215-74.27 74.27-90.917 117.166-16.007 42.898-18.887 89.636-7.683 140.215z"></path>
<path d="M277.129 146.837c-5.122-1.601-8.003-7.043-6.402-12.484 1.601-5.122 7.043-8.004 12.485-6.403 53.142 16.967 95.398 44.817 126.45 83.553 31.053 38.415 51.22 87.394 60.183 146.618 0.96 5.442-2.882 10.244-8.324 11.204s-10.244-2.882-11.204-8.324c-8.643-56.023-27.211-101.8-56.023-137.335-28.491-35.215-67.548-60.825-117.166-76.832z"></path>
<path d="M339.873 328.988c4.162-3.521 10.244-3.202 13.765 0.641 3.521 4.162 3.202 10.244-0.641 13.765-41.296 37.455-86.435 60.183-135.414 67.866s-101.161 0.641-157.183-21.129c-5.122-1.921-7.683-7.683-5.443-12.805s7.683-7.683 12.805-5.442c52.501 20.488 101.801 27.211 146.938 20.168 44.817-7.363 86.755-28.171 125.17-63.065z"></path>
</svg>
