<?xml version="1.0" encoding="utf-8"?>
<!-- Generated by IcoMoon.io -->
<!DOCTYPE svg PUBLIC "-//W3C//DTD SVG 1.1//EN" "http://www.w3.org/Graphics/SVG/1.1/DTD/svg11.dtd">
<svg version="1.1" xmlns="http://www.w3.org/2000/svg" xmlns:xlink="http://www.w3.org/1999/xlink" width="512" height="512" viewBox="0 0 512 512">
<g id="icomoon-ignore">
</g>
<path d="M256 512c-141.385 0-256-114.615-256-256s114.615-256 256-256c141.385 0 256 114.615 256 256-0.156 141.322-114.678 255.844-255.985 256zM256 39.497c-119.493 0.104-216.32 96.996-216.32 216.503 0 119.571 96.931 216.503 216.503 216.503s216.503-96.931 216.503-216.503c-0.208-119.552-97.12-216.399-216.676-216.503zM374.125 275.748h-118.125c-10.899-0.021-19.728-8.85-19.749-19.747v-157.442c0-10.907 8.841-19.749 19.749-19.749s19.748 8.841 19.748 19.749v137.691h98.377c10.907 0 19.748 8.841 19.748 19.749s-8.841 19.748-19.748 19.748z"></path>
</svg>
