<?xml version="1.0" encoding="utf-8"?>
<!-- Generated by IcoMoon.io -->
<!DOCTYPE svg PUBLIC "-//W3C//DTD SVG 1.1//EN" "http://www.w3.org/Graphics/SVG/1.1/DTD/svg11.dtd">
<svg version="1.1" xmlns="http://www.w3.org/2000/svg" xmlns:xlink="http://www.w3.org/1999/xlink" width="867" height="512" viewBox="0 0 867 512">
<g id="icomoon-ignore">
</g>
<path d="M866.571 60.986c0.003 0.194 0.004 0.424 0.004 0.654 0 16.301-6.494 31.085-17.035 41.907l-375.123 390.014c-10.357 10.887-24.953 17.658-41.13 17.658s-30.773-6.771-41.108-17.634l-375.158-390.051c-10.536-11.047-17.020-26.041-17.020-42.548s6.484-31.501 17.043-42.573c10.213-11.11 24.848-18.063 41.107-18.063s30.894 6.952 41.094 18.047l334.042 346.81 334.005-346.77c10.236-11.134 24.871-18.087 41.13-18.087s30.894 6.952 41.094 18.047c10.566 10.849 17.059 25.634 17.059 41.934 0 0.23-0.001 0.459-0.004 0.688z"></path>
</svg>
