<?xml version="1.0" encoding="utf-8"?>
<!-- Generated by IcoMoon.io -->
<!DOCTYPE svg PUBLIC "-//W3C//DTD SVG 1.1//EN" "http://www.w3.org/Graphics/SVG/1.1/DTD/svg11.dtd">
<svg version="1.1" xmlns="http://www.w3.org/2000/svg" xmlns:xlink="http://www.w3.org/1999/xlink" width="512" height="512" viewBox="0 0 512 512">
<g id="icomoon-ignore">
</g>
<path d="M40.96 40.96h90.726v-40.96h-131.686v131.686h40.96z"></path>
<path d="M201.874 172.911l-166.912-166.912-28.963 28.963 166.912 166.912z"></path>
<path d="M463.462 131.686h40.96v-131.686h-131.686v40.96h90.726z"></path>
<path d="M331.512 201.874l166.912-166.912-28.963-28.963-166.912 166.912z"></path>
<path d="M40.96 372.736h-40.96v131.687h131.686v-40.96h-90.727z"></path>
<path d="M172.911 302.549l-166.912 166.912 28.963 28.963 166.912-166.912z"></path>
<path d="M372.736 463.462v40.96h131.687v-131.686h-40.96v90.726z"></path>
<path d="M302.549 331.512l166.912 166.912 28.963-28.963-166.912-166.912z"></path>
</svg>
