<?xml version="1.0" encoding="utf-8"?>
<!-- Generated by IcoMoon.io -->
<!DOCTYPE svg PUBLIC "-//W3C//DTD SVG 1.1//EN" "http://www.w3.org/Graphics/SVG/1.1/DTD/svg11.dtd">
<svg version="1.1" xmlns="http://www.w3.org/2000/svg" xmlns:xlink="http://www.w3.org/1999/xlink" width="542" height="512" viewBox="0 0 542 512">
<g id="icomoon-ignore">
</g>
<path d="M45.176 69.066c0-13.059 10.883-23.889 23.89-23.889h73.897c13.059 0 23.889 10.883 23.889 23.889v73.897c0 13.059-10.883 23.889-23.889 23.889h-73.897c-13.059 0-23.889-10.883-23.889-23.889v-73.897zM0 69.066v73.897c0 37.908 31.009 69.066 69.066 69.066h73.897c37.908 0 69.066-31.008 69.066-69.066v-73.897c0-37.908-31.008-69.066-69.066-69.066h-73.897c-37.908 0-69.066 31.009-69.066 69.066z"></path>
<path d="M348.16 69.066c0-13.059 10.883-23.889 23.889-23.889h73.897c13.058 0 23.889 10.883 23.889 23.889v73.897c0 13.059-10.883 23.889-23.889 23.889h-73.897c-13.058 0-23.889-10.883-23.889-23.889v-73.897zM302.983 69.066v73.897c0 37.908 31.009 69.066 69.066 69.066h73.897c37.908 0 69.066-31.008 69.066-69.066v-73.897c0-37.908-31.009-69.066-69.066-69.066h-73.897c-37.908 0-69.066 31.009-69.066 69.066z"></path>
<path d="M45.176 364.219c0-13.058 10.883-23.889 23.89-23.889h73.897c13.059 0 23.889 10.883 23.889 23.889v73.897c0 13.058-10.883 23.889-23.889 23.889h-73.897c-13.059 0-23.889-10.883-23.889-23.889v-73.897zM0 364.219v73.897c0 37.908 31.009 69.066 69.066 69.066h73.897c37.908 0 69.066-31.009 69.066-69.066v-73.897c0-37.908-31.008-69.066-69.066-69.066h-73.897c-37.908 0-69.066 31.009-69.066 69.066z"></path>
<path d="M348.16 364.219c0-13.058 10.883-23.889 23.889-23.889h73.897c13.058 0 23.889 10.883 23.889 23.889v73.897c0 13.058-10.883 23.889-23.889 23.889h-73.897c-13.058 0-23.889-10.883-23.889-23.889v-73.897zM302.983 364.219v73.897c0 37.908 31.009 69.066 69.066 69.066h73.897c37.908 0 69.066-31.009 69.066-69.066v-73.897c0-37.908-31.009-69.066-69.066-69.066h-73.897c-37.908 0-69.066 31.009-69.066 69.066z"></path>
</svg>
