<?xml version="1.0" encoding="utf-8"?>
<!-- Generated by IcoMoon.io -->
<!DOCTYPE svg PUBLIC "-//W3C//DTD SVG 1.1//EN" "http://www.w3.org/Graphics/SVG/1.1/DTD/svg11.dtd">
<svg version="1.1" xmlns="http://www.w3.org/2000/svg" xmlns:xlink="http://www.w3.org/1999/xlink" width="512" height="512" viewBox="0 0 512 512">
<g id="icomoon-ignore">
</g>
<path d="M198.948 189.44c0-21.634 22.785-40.594 52.48-40.594s52.48 18.96 52.48 40.594c-0.055 7.669-2.819 15.207-7.818 21.194-4.069 4.716-3.431 4.139-22.947 21.198-27.719 24.23-40.001 40.246-40.001 63.664v24.32h36.571v-24.32c0-8.746 7.784-18.897 27.498-36.13-5.329 4.658 10.528-9.135 13.741-12.041 5.335-4.823 9.483-8.928 13.022-13.032 10.62-12.714 16.387-28.446 16.504-44.723 0-43.601-40.492-77.296-89.051-77.296s-89.052 33.695-89.052 77.165h36.571z"></path>
<path d="M251.245 407.954c16.562 0 29.988-13.426 29.988-29.988s-13.426-29.988-29.988-29.988c-16.562 0-29.988 13.426-29.988 29.988s13.427 29.988 29.988 29.988zM251.245 371.383c3.636 0 6.583 2.947 6.583 6.583s-2.947 6.583-6.583 6.583c-3.636 0-6.583-2.947-6.583-6.583s2.947-6.583 6.583-6.583z"></path>
<path d="M251.245 502.491c138.759 0 251.245-112.486 251.245-251.245s-112.486-251.245-251.245-251.245c-138.759 0-251.245 112.487-251.245 251.245s112.487 251.245 251.245 251.245zM251.245 465.92c-118.561 0-214.674-96.113-214.674-214.674s96.113-214.674 214.674-214.674c118.562 0 214.674 96.113 214.674 214.674s-96.113 214.674-214.674 214.674z"></path>
</svg>
