<?xml version="1.0" encoding="UTF-8" standalone="no"?>
<svg width="466px" height="512px" viewBox="0 0 466 512" version="1.1" xmlns="http://www.w3.org/2000/svg" xmlns:xlink="http://www.w3.org/1999/xlink">
    <!-- Generator: Sketch 41.2 (35397) - http://www.bohemiancoding.com/sketch -->
    <title>hex-next</title>
    <desc>Created with Sketch.</desc>
    <defs></defs>
    <g id="Page-1" stroke="none" stroke-width="1" fill="none" fill-rule="evenodd">
        <g id="hex-next" fill="#000000">
            <path d="M278.063,12.288 L420.213,94.673 C448.233,110.964 465.549,141.032 465.549,173.614 L465.549,338.385 C465.549,370.967 448.234,401.035 420.213,417.326 L278.063,499.711 C250.043,516.002 215.506,516.002 187.392,499.711 L45.336,417.326 C17.223,401.035 -1.42108547e-14,370.966 -1.42108547e-14,338.385 L-1.42108547e-14,173.614 C-1.42108547e-14,141.032 17.222,110.964 45.336,94.673 L187.392,12.288 C215.505,-4.003 250.042,-4.003 278.063,12.288 L278.063,12.288 Z M208.71,158.161 C212.061,158.161 215.412,159.465 218.019,161.977 L303.291,246.596 C308.504,251.716 308.504,260.001 303.291,265.121 L218.019,349.741 C212.806,354.861 204.521,354.861 199.307,349.741 C194.187,344.621 194.187,336.336 199.307,331.216 L275.269,255.906 L199.307,180.596 C194.187,175.476 194.187,167.098 199.307,161.978 C201.914,159.465 205.265,158.162 208.709,158.162 L208.71,158.161 Z" id="Combined-Shape"></path>
        </g>
    </g>
</svg>