<?xml version="1.0" encoding="utf-8"?>
<!-- Generated by IcoMoon.io -->
<!DOCTYPE svg PUBLIC "-//W3C//DTD SVG 1.1//EN" "http://www.w3.org/Graphics/SVG/1.1/DTD/svg11.dtd">
<svg version="1.1" xmlns="http://www.w3.org/2000/svg" xmlns:xlink="http://www.w3.org/1999/xlink" width="472" height="512" viewBox="0 0 472 512">
<g id="icomoon-ignore">
</g>
<path d="M236.117 511.95c-19.188 0-38.425-4.921-55.575-14.863 0 0-124.968-72.326-124.968-72.326-34.299-19.834-55.575-56.817-55.575-96.485 0 0 0-144.653 0-144.653 0-39.667 21.276-76.651 55.575-96.484 0 0 124.968-72.326 124.968-72.326 34.299-19.884 76.85-19.884 111.148 0 0 0 125.017 72.326 125.017 72.326 34.25 19.834 55.524 56.817 55.524 96.484 0 0 0 144.653 0 144.653 0 39.668-21.276 76.651-55.524 96.485 0 0-125.017 72.326-125.017 72.326-17.149 9.942-36.387 14.863-55.575 14.863zM236.117 14.714c-16.653 0-33.305 4.324-48.168 12.925 0 0-125.017 72.326-125.017 72.326-29.676 17.199-48.118 49.262-48.118 83.66 0 0 0 144.653 0 144.653 0 34.399 18.442 66.46 48.118 83.66 0 0 125.017 72.326 125.017 72.326 29.726 17.199 66.609 17.199 96.335 0 0 0 125.017-72.326 125.017-72.326 29.676-17.199 48.118-49.262 48.118-83.66 0 0 0-144.653 0-144.653 0-34.398-18.442-66.46-48.118-83.66 0 0-125.017-72.326-125.017-72.326-14.863-8.599-31.516-12.925-48.168-12.925z"></path>
</svg>
