<?xml version="1.0" encoding="utf-8"?>
<!-- Generated by IcoMoon.io -->
<!DOCTYPE svg PUBLIC "-//W3C//DTD SVG 1.1//EN" "http://www.w3.org/Graphics/SVG/1.1/DTD/svg11.dtd">
<svg version="1.1" xmlns="http://www.w3.org/2000/svg" xmlns:xlink="http://www.w3.org/1999/xlink" width="472" height="512" viewBox="0 0 472 512">
<g id="icomoon-ignore">
</g>
<path d="M182.476 497.493l-129.030-74.517c-32.175-18.825-53.444-53.214-53.444-92.569 0-0.042 0-0.084 0-0.126v-148.875c0-0.036 0-0.077 0-0.119 0-39.356 21.27-73.743 52.94-92.296l129.535-74.79c15.331-9.003 33.767-14.32 53.445-14.32s38.113 5.317 53.949 14.594l128.526 74.244c32.175 18.826 53.445 53.214 53.445 92.569 0 0.042 0 0.084 0 0.126v148.875c0 0.036 0 0.077 0 0.12 0 39.356-21.269 73.743-52.94 92.296l-129.535 74.791c-15.331 9.003-33.767 14.32-53.445 14.32s-38.113-5.317-53.949-14.594z"></path>
</svg>
