<?xml version="1.0" encoding="UTF-8" standalone="no"?>
<svg width="467px" height="513px" viewBox="0 0 467 513" version="1.1" xmlns="http://www.w3.org/2000/svg" xmlns:xlink="http://www.w3.org/1999/xlink">
    <!-- Generator: Sketch 41.2 (35397) - http://www.bohemiancoding.com/sketch -->
    <title>Combined Shape</title>
    <desc>Created with Sketch.</desc>
    <defs></defs>
    <g id="Page-1" stroke="none" stroke-width="1" fill="none" fill-rule="evenodd">
        <g id="hex-last" fill="#21252D">
            <path d="M188.392,500.712 L46.242,418.234 C18.222,401.943 0.906,371.875 0.906,339.293 L0.906,174.429 C0.906,141.847 18.221,111.779 46.242,95.488 L188.392,13.01 C216.412,-3.281 250.949,-3.281 279.063,13.01 L421.12,95.488 C449.233,111.779 466.548,141.847 466.548,174.429 L466.548,339.293 C466.548,371.875 449.233,401.943 421.12,418.234 L279.063,500.712 C250.95,517.003 216.413,517.003 188.392,500.712 L188.392,500.712 Z M257.838,354.745 C254.393,354.745 251.042,353.442 248.436,350.928 L163.164,266.216 C157.951,261.096 157.951,252.811 163.164,247.691 L248.436,163.072 C253.649,157.952 262.027,157.952 267.148,163.072 C272.361,168.192 272.361,176.477 267.148,181.597 L191.186,257 L267.148,332.31 C272.361,337.43 272.361,345.808 267.148,350.928 C264.542,353.442 261.19,354.745 257.839,354.745 L257.838,354.745 Z" id="Combined-Shape"></path>
        </g>
    </g>
</svg>