<?xml version="1.0" encoding="utf-8"?>
<!-- Generated by IcoMoon.io -->
<!DOCTYPE svg PUBLIC "-//W3C//DTD SVG 1.1//EN" "http://www.w3.org/Graphics/SVG/1.1/DTD/svg11.dtd">
<svg version="1.1" xmlns="http://www.w3.org/2000/svg" xmlns:xlink="http://www.w3.org/1999/xlink" width="512" height="512" viewBox="0 0 512 512">
<g id="icomoon-ignore">
</g>
<path d="M250.683 501.366c138.448 0 250.683-112.235 250.683-250.683s-112.235-250.683-250.683-250.683c-138.448 0-250.683 112.234-250.683 250.683s112.234 250.683 250.683 250.683zM250.683 461.981c-116.697 0-211.298-94.601-211.298-211.298s94.601-211.298 211.298-211.298c116.697 0 211.298 94.601 211.298 211.298s-94.601 211.298-211.298 211.298z"></path>
<path d="M268.406 144.148c0 9.788-7.935 17.723-17.723 17.723s-17.723-7.935-17.723-17.723c0-9.788 7.935-17.723 17.723-17.723s17.723 7.935 17.723 17.723z"></path>
<path d="M268.406 215.237c0-9.788-7.935-17.723-17.723-17.723s-17.723 7.935-17.723 17.723v159.901c0 9.788 7.935 17.723 17.723 17.723s17.723-7.935 17.723-17.723v-159.901z"></path>
</svg>
