<?xml version="1.0" encoding="utf-8"?>
<!-- Generated by IcoMoon.io -->
<!DOCTYPE svg PUBLIC "-//W3C//DTD SVG 1.1//EN" "http://www.w3.org/Graphics/SVG/1.1/DTD/svg11.dtd">
<svg version="1.1" xmlns="http://www.w3.org/2000/svg" xmlns:xlink="http://www.w3.org/1999/xlink" width="276" height="512" viewBox="0 0 276 512">
<g id="icomoon-ignore">
</g>
<path d="M264.271 10.634c-6.031-6.551-14.649-10.642-24.221-10.642s-18.19 4.090-24.201 10.618l-205.609 219.395c-6.226 6.839-10.038 15.971-10.038 25.994s3.812 19.154 10.066 26.025l205.56 219.341c6.135 6.509 14.796 10.577 24.408 10.634 9.509-0.062 18.044-4.136 24.014-10.611 6.245-6.791 10.060-15.86 10.060-25.82s-3.815-19.029-10.064-25.824l-181.538-193.745 181.563-193.773c6.224-6.769 10.039-15.837 10.039-25.797s-3.815-19.029-10.064-25.824z"></path>
</svg>
