<?xml version="1.0" encoding="utf-8"?>
<!-- Generated by IcoMoon.io -->
<!DOCTYPE svg PUBLIC "-//W3C//DTD SVG 1.1//EN" "http://www.w3.org/Graphics/SVG/1.1/DTD/svg11.dtd">
<svg version="1.1" xmlns="http://www.w3.org/2000/svg" xmlns:xlink="http://www.w3.org/1999/xlink" width="465" height="512" viewBox="0 0 465 512">
<g id="icomoon-ignore">
</g>
<path d="M435.382 107.011l-173.172-99.168c-8.473-4.932-18.648-7.843-29.504-7.843s-21.031 2.912-29.788 7.996l-173.142 99.016c-17.884 10.345-29.733 29.366-29.776 51.157v195.583c0.085 21.794 11.954 40.797 29.564 50.976l173.494 99.429c8.481 4.935 18.666 7.847 29.531 7.847 10.917 0 21.146-2.94 29.94-8.072l58.434-33.618c17.38-10.149 28.87-28.711 28.87-49.957 0-29.505-22.162-53.833-50.747-57.247-2.364-0.291-4.783-0.442-7.236-0.442-11.12 0-21.515 3.098-30.372 8.478l0.26-0.147c-8.408 4.845-18.491 7.703-29.241 7.703-10.698 0-20.736-2.83-29.404-7.784l-56.827-32.128c-18.064-10.277-30.052-29.392-30.067-51.306v-63.331c0.088-21.821 11.989-40.843 29.635-51.011l57.441-32.797c8.453-4.901 18.6-7.793 29.422-7.793 10.874 0 21.065 2.92 29.833 8.018l56.581 32.419c17.746 10.319 29.486 29.244 29.486 50.911 0 0.089 0 0.178-0 0.267v129.003c0 28.214 22.877 55.086 50.982 58.426 2.159 0.284 4.656 0.447 7.19 0.447 32 0 57.95-25.903 58.026-57.885v-195.983c0-0.099 0.001-0.215 0.001-0.332 0-21.627-11.71-40.519-29.135-50.681zM247.721 352.953v0l-13.835-55.267c-1.852-7.408 5.192-14.344 14.561-14.344h12.164c11.184 0 18.337-9.55 13.145-17.538l-57.591-88.238c-3.125-3.919-7.9-6.41-13.256-6.41-4.433 0-8.467 1.705-11.483 4.495l0.011-0.010c-2.010 1.85-3.264 4.493-3.264 7.429 0 2.090 0.637 4.033 1.726 5.643l34.474 53.017c5.156 7.988-1.997 17.539-13.145 17.539h-7.625c-11.547 0-18.665 10.204-12.673 18.192z"></path>
</svg>
