<?xml version="1.0" encoding="utf-8"?>
<!-- Generated by IcoMoon.io -->
<!DOCTYPE svg PUBLIC "-//W3C//DTD SVG 1.1//EN" "http://www.w3.org/Graphics/SVG/1.1/DTD/svg11.dtd">
<svg version="1.1" xmlns="http://www.w3.org/2000/svg" xmlns:xlink="http://www.w3.org/1999/xlink" width="1938" height="512" viewBox="0 0 1938 512">
<g id="icomoon-ignore">
    <line stroke-width="1" x1="16" y1="0" x2="16" y2="512" stroke="#449FDB" opacity="0.3"></line>
    <line stroke-width="1" x1="32" y1="0" x2="32" y2="512" stroke="#449FDB" opacity="1"></line>
    <line stroke-width="1" x1="48" y1="0" x2="48" y2="512" stroke="#449FDB" opacity="0.3"></line>
    <line stroke-width="1" x1="64" y1="0" x2="64" y2="512" stroke="#449FDB" opacity="1"></line>
    <line stroke-width="1" x1="80" y1="0" x2="80" y2="512" stroke="#449FDB" opacity="0.3"></line>
    <line stroke-width="1" x1="96" y1="0" x2="96" y2="512" stroke="#449FDB" opacity="1"></line>
    <line stroke-width="1" x1="112" y1="0" x2="112" y2="512" stroke="#449FDB" opacity="0.3"></line>
    <line stroke-width="1" x1="128" y1="0" x2="128" y2="512" stroke="#449FDB" opacity="1"></line>
    <line stroke-width="1" x1="144" y1="0" x2="144" y2="512" stroke="#449FDB" opacity="0.3"></line>
    <line stroke-width="1" x1="160" y1="0" x2="160" y2="512" stroke="#449FDB" opacity="1"></line>
    <line stroke-width="1" x1="176" y1="0" x2="176" y2="512" stroke="#449FDB" opacity="0.3"></line>
    <line stroke-width="1" x1="192" y1="0" x2="192" y2="512" stroke="#449FDB" opacity="1"></line>
    <line stroke-width="1" x1="208" y1="0" x2="208" y2="512" stroke="#449FDB" opacity="0.3"></line>
    <line stroke-width="1" x1="224" y1="0" x2="224" y2="512" stroke="#449FDB" opacity="1"></line>
    <line stroke-width="1" x1="240" y1="0" x2="240" y2="512" stroke="#449FDB" opacity="0.3"></line>
    <line stroke-width="1" x1="256" y1="0" x2="256" y2="512" stroke="#449FDB" opacity="1"></line>
    <line stroke-width="1" x1="272" y1="0" x2="272" y2="512" stroke="#449FDB" opacity="0.3"></line>
    <line stroke-width="1" x1="288" y1="0" x2="288" y2="512" stroke="#449FDB" opacity="1"></line>
    <line stroke-width="1" x1="304" y1="0" x2="304" y2="512" stroke="#449FDB" opacity="0.3"></line>
    <line stroke-width="1" x1="320" y1="0" x2="320" y2="512" stroke="#449FDB" opacity="1"></line>
    <line stroke-width="1" x1="336" y1="0" x2="336" y2="512" stroke="#449FDB" opacity="0.3"></line>
    <line stroke-width="1" x1="352" y1="0" x2="352" y2="512" stroke="#449FDB" opacity="1"></line>
    <line stroke-width="1" x1="368" y1="0" x2="368" y2="512" stroke="#449FDB" opacity="0.3"></line>
    <line stroke-width="1" x1="384" y1="0" x2="384" y2="512" stroke="#449FDB" opacity="1"></line>
    <line stroke-width="1" x1="400" y1="0" x2="400" y2="512" stroke="#449FDB" opacity="0.3"></line>
    <line stroke-width="1" x1="416" y1="0" x2="416" y2="512" stroke="#449FDB" opacity="1"></line>
    <line stroke-width="1" x1="432" y1="0" x2="432" y2="512" stroke="#449FDB" opacity="0.3"></line>
    <line stroke-width="1" x1="448" y1="0" x2="448" y2="512" stroke="#449FDB" opacity="1"></line>
    <line stroke-width="1" x1="464" y1="0" x2="464" y2="512" stroke="#449FDB" opacity="0.3"></line>
    <line stroke-width="1" x1="480" y1="0" x2="480" y2="512" stroke="#449FDB" opacity="1"></line>
    <line stroke-width="1" x1="496" y1="0" x2="496" y2="512" stroke="#449FDB" opacity="0.3"></line>
    <line stroke-width="1" x1="512" y1="0" x2="512" y2="512" stroke="#449FDB" opacity="1"></line>
    <line stroke-width="1" x1="528" y1="0" x2="528" y2="512" stroke="#449FDB" opacity="0.3"></line>
    <line stroke-width="1" x1="544" y1="0" x2="544" y2="512" stroke="#449FDB" opacity="1"></line>
    <line stroke-width="1" x1="560" y1="0" x2="560" y2="512" stroke="#449FDB" opacity="0.3"></line>
    <line stroke-width="1" x1="576" y1="0" x2="576" y2="512" stroke="#449FDB" opacity="1"></line>
    <line stroke-width="1" x1="592" y1="0" x2="592" y2="512" stroke="#449FDB" opacity="0.3"></line>
    <line stroke-width="1" x1="608" y1="0" x2="608" y2="512" stroke="#449FDB" opacity="1"></line>
    <line stroke-width="1" x1="624" y1="0" x2="624" y2="512" stroke="#449FDB" opacity="0.3"></line>
    <line stroke-width="1" x1="640" y1="0" x2="640" y2="512" stroke="#449FDB" opacity="1"></line>
    <line stroke-width="1" x1="656" y1="0" x2="656" y2="512" stroke="#449FDB" opacity="0.3"></line>
    <line stroke-width="1" x1="672" y1="0" x2="672" y2="512" stroke="#449FDB" opacity="1"></line>
    <line stroke-width="1" x1="688" y1="0" x2="688" y2="512" stroke="#449FDB" opacity="0.3"></line>
    <line stroke-width="1" x1="704" y1="0" x2="704" y2="512" stroke="#449FDB" opacity="1"></line>
    <line stroke-width="1" x1="720" y1="0" x2="720" y2="512" stroke="#449FDB" opacity="0.3"></line>
    <line stroke-width="1" x1="736" y1="0" x2="736" y2="512" stroke="#449FDB" opacity="1"></line>
    <line stroke-width="1" x1="752" y1="0" x2="752" y2="512" stroke="#449FDB" opacity="0.3"></line>
    <line stroke-width="1" x1="768" y1="0" x2="768" y2="512" stroke="#449FDB" opacity="1"></line>
    <line stroke-width="1" x1="784" y1="0" x2="784" y2="512" stroke="#449FDB" opacity="0.3"></line>
    <line stroke-width="1" x1="800" y1="0" x2="800" y2="512" stroke="#449FDB" opacity="1"></line>
    <line stroke-width="1" x1="816" y1="0" x2="816" y2="512" stroke="#449FDB" opacity="0.3"></line>
    <line stroke-width="1" x1="832" y1="0" x2="832" y2="512" stroke="#449FDB" opacity="1"></line>
    <line stroke-width="1" x1="848" y1="0" x2="848" y2="512" stroke="#449FDB" opacity="0.3"></line>
    <line stroke-width="1" x1="864" y1="0" x2="864" y2="512" stroke="#449FDB" opacity="1"></line>
    <line stroke-width="1" x1="880" y1="0" x2="880" y2="512" stroke="#449FDB" opacity="0.3"></line>
    <line stroke-width="1" x1="896" y1="0" x2="896" y2="512" stroke="#449FDB" opacity="1"></line>
    <line stroke-width="1" x1="912" y1="0" x2="912" y2="512" stroke="#449FDB" opacity="0.3"></line>
    <line stroke-width="1" x1="928" y1="0" x2="928" y2="512" stroke="#449FDB" opacity="1"></line>
    <line stroke-width="1" x1="944" y1="0" x2="944" y2="512" stroke="#449FDB" opacity="0.3"></line>
    <line stroke-width="1" x1="960" y1="0" x2="960" y2="512" stroke="#449FDB" opacity="1"></line>
    <line stroke-width="1" x1="976" y1="0" x2="976" y2="512" stroke="#449FDB" opacity="0.3"></line>
    <line stroke-width="1" x1="992" y1="0" x2="992" y2="512" stroke="#449FDB" opacity="1"></line>
    <line stroke-width="1" x1="1008" y1="0" x2="1008" y2="512" stroke="#449FDB" opacity="0.3"></line>
    <line stroke-width="1" x1="1024" y1="0" x2="1024" y2="512" stroke="#449FDB" opacity="1"></line>
    <line stroke-width="1" x1="1040" y1="0" x2="1040" y2="512" stroke="#449FDB" opacity="0.3"></line>
    <line stroke-width="1" x1="1056" y1="0" x2="1056" y2="512" stroke="#449FDB" opacity="1"></line>
    <line stroke-width="1" x1="1072" y1="0" x2="1072" y2="512" stroke="#449FDB" opacity="0.3"></line>
    <line stroke-width="1" x1="1088" y1="0" x2="1088" y2="512" stroke="#449FDB" opacity="1"></line>
    <line stroke-width="1" x1="1104" y1="0" x2="1104" y2="512" stroke="#449FDB" opacity="0.3"></line>
    <line stroke-width="1" x1="1120" y1="0" x2="1120" y2="512" stroke="#449FDB" opacity="1"></line>
    <line stroke-width="1" x1="1136" y1="0" x2="1136" y2="512" stroke="#449FDB" opacity="0.3"></line>
    <line stroke-width="1" x1="1152" y1="0" x2="1152" y2="512" stroke="#449FDB" opacity="1"></line>
    <line stroke-width="1" x1="1168" y1="0" x2="1168" y2="512" stroke="#449FDB" opacity="0.3"></line>
    <line stroke-width="1" x1="1184" y1="0" x2="1184" y2="512" stroke="#449FDB" opacity="1"></line>
    <line stroke-width="1" x1="1200" y1="0" x2="1200" y2="512" stroke="#449FDB" opacity="0.3"></line>
    <line stroke-width="1" x1="1216" y1="0" x2="1216" y2="512" stroke="#449FDB" opacity="1"></line>
    <line stroke-width="1" x1="1232" y1="0" x2="1232" y2="512" stroke="#449FDB" opacity="0.3"></line>
    <line stroke-width="1" x1="1248" y1="0" x2="1248" y2="512" stroke="#449FDB" opacity="1"></line>
    <line stroke-width="1" x1="1264" y1="0" x2="1264" y2="512" stroke="#449FDB" opacity="0.3"></line>
    <line stroke-width="1" x1="1280" y1="0" x2="1280" y2="512" stroke="#449FDB" opacity="1"></line>
    <line stroke-width="1" x1="1296" y1="0" x2="1296" y2="512" stroke="#449FDB" opacity="0.3"></line>
    <line stroke-width="1" x1="1312" y1="0" x2="1312" y2="512" stroke="#449FDB" opacity="1"></line>
    <line stroke-width="1" x1="1328" y1="0" x2="1328" y2="512" stroke="#449FDB" opacity="0.3"></line>
    <line stroke-width="1" x1="1344" y1="0" x2="1344" y2="512" stroke="#449FDB" opacity="1"></line>
    <line stroke-width="1" x1="1360" y1="0" x2="1360" y2="512" stroke="#449FDB" opacity="0.3"></line>
    <line stroke-width="1" x1="1376" y1="0" x2="1376" y2="512" stroke="#449FDB" opacity="1"></line>
    <line stroke-width="1" x1="1392" y1="0" x2="1392" y2="512" stroke="#449FDB" opacity="0.3"></line>
    <line stroke-width="1" x1="1408" y1="0" x2="1408" y2="512" stroke="#449FDB" opacity="1"></line>
    <line stroke-width="1" x1="1424" y1="0" x2="1424" y2="512" stroke="#449FDB" opacity="0.3"></line>
    <line stroke-width="1" x1="1440" y1="0" x2="1440" y2="512" stroke="#449FDB" opacity="1"></line>
    <line stroke-width="1" x1="1456" y1="0" x2="1456" y2="512" stroke="#449FDB" opacity="0.3"></line>
    <line stroke-width="1" x1="1472" y1="0" x2="1472" y2="512" stroke="#449FDB" opacity="1"></line>
    <line stroke-width="1" x1="1488" y1="0" x2="1488" y2="512" stroke="#449FDB" opacity="0.3"></line>
    <line stroke-width="1" x1="1504" y1="0" x2="1504" y2="512" stroke="#449FDB" opacity="1"></line>
    <line stroke-width="1" x1="1520" y1="0" x2="1520" y2="512" stroke="#449FDB" opacity="0.3"></line>
    <line stroke-width="1" x1="1536" y1="0" x2="1536" y2="512" stroke="#449FDB" opacity="1"></line>
    <line stroke-width="1" x1="1552" y1="0" x2="1552" y2="512" stroke="#449FDB" opacity="0.3"></line>
    <line stroke-width="1" x1="1568" y1="0" x2="1568" y2="512" stroke="#449FDB" opacity="1"></line>
    <line stroke-width="1" x1="1584" y1="0" x2="1584" y2="512" stroke="#449FDB" opacity="0.3"></line>
    <line stroke-width="1" x1="1600" y1="0" x2="1600" y2="512" stroke="#449FDB" opacity="1"></line>
    <line stroke-width="1" x1="1616" y1="0" x2="1616" y2="512" stroke="#449FDB" opacity="0.3"></line>
    <line stroke-width="1" x1="1632" y1="0" x2="1632" y2="512" stroke="#449FDB" opacity="1"></line>
    <line stroke-width="1" x1="1648" y1="0" x2="1648" y2="512" stroke="#449FDB" opacity="0.3"></line>
    <line stroke-width="1" x1="1664" y1="0" x2="1664" y2="512" stroke="#449FDB" opacity="1"></line>
    <line stroke-width="1" x1="1680" y1="0" x2="1680" y2="512" stroke="#449FDB" opacity="0.3"></line>
    <line stroke-width="1" x1="1696" y1="0" x2="1696" y2="512" stroke="#449FDB" opacity="1"></line>
    <line stroke-width="1" x1="1712" y1="0" x2="1712" y2="512" stroke="#449FDB" opacity="0.3"></line>
    <line stroke-width="1" x1="1728" y1="0" x2="1728" y2="512" stroke="#449FDB" opacity="1"></line>
    <line stroke-width="1" x1="1744" y1="0" x2="1744" y2="512" stroke="#449FDB" opacity="0.3"></line>
    <line stroke-width="1" x1="1760" y1="0" x2="1760" y2="512" stroke="#449FDB" opacity="1"></line>
    <line stroke-width="1" x1="1776" y1="0" x2="1776" y2="512" stroke="#449FDB" opacity="0.3"></line>
    <line stroke-width="1" x1="1792" y1="0" x2="1792" y2="512" stroke="#449FDB" opacity="1"></line>
    <line stroke-width="1" x1="1808" y1="0" x2="1808" y2="512" stroke="#449FDB" opacity="0.3"></line>
    <line stroke-width="1" x1="1824" y1="0" x2="1824" y2="512" stroke="#449FDB" opacity="1"></line>
    <line stroke-width="1" x1="1840" y1="0" x2="1840" y2="512" stroke="#449FDB" opacity="0.3"></line>
    <line stroke-width="1" x1="1856" y1="0" x2="1856" y2="512" stroke="#449FDB" opacity="1"></line>
    <line stroke-width="1" x1="1872" y1="0" x2="1872" y2="512" stroke="#449FDB" opacity="0.3"></line>
    <line stroke-width="1" x1="1888" y1="0" x2="1888" y2="512" stroke="#449FDB" opacity="1"></line>
    <line stroke-width="1" x1="1904" y1="0" x2="1904" y2="512" stroke="#449FDB" opacity="0.3"></line>
    <line stroke-width="1" x1="1920" y1="0" x2="1920" y2="512" stroke="#449FDB" opacity="1"></line>
    <line stroke-width="1" x1="1936" y1="0" x2="1936" y2="512" stroke="#449FDB" opacity="0.3"></line>
    <line stroke-width="1" x1="0" y1="16" x2="1938" y2="16" stroke="#449FDB" opacity="0.3"></line>
    <line stroke-width="1" x1="0" y1="32" x2="1938" y2="32" stroke="#449FDB" opacity="1"></line>
    <line stroke-width="1" x1="0" y1="48" x2="1938" y2="48" stroke="#449FDB" opacity="0.3"></line>
    <line stroke-width="1" x1="0" y1="64" x2="1938" y2="64" stroke="#449FDB" opacity="1"></line>
    <line stroke-width="1" x1="0" y1="80" x2="1938" y2="80" stroke="#449FDB" opacity="0.3"></line>
    <line stroke-width="1" x1="0" y1="96" x2="1938" y2="96" stroke="#449FDB" opacity="1"></line>
    <line stroke-width="1" x1="0" y1="112" x2="1938" y2="112" stroke="#449FDB" opacity="0.3"></line>
    <line stroke-width="1" x1="0" y1="128" x2="1938" y2="128" stroke="#449FDB" opacity="1"></line>
    <line stroke-width="1" x1="0" y1="144" x2="1938" y2="144" stroke="#449FDB" opacity="0.3"></line>
    <line stroke-width="1" x1="0" y1="160" x2="1938" y2="160" stroke="#449FDB" opacity="1"></line>
    <line stroke-width="1" x1="0" y1="176" x2="1938" y2="176" stroke="#449FDB" opacity="0.3"></line>
    <line stroke-width="1" x1="0" y1="192" x2="1938" y2="192" stroke="#449FDB" opacity="1"></line>
    <line stroke-width="1" x1="0" y1="208" x2="1938" y2="208" stroke="#449FDB" opacity="0.3"></line>
    <line stroke-width="1" x1="0" y1="224" x2="1938" y2="224" stroke="#449FDB" opacity="1"></line>
    <line stroke-width="1" x1="0" y1="240" x2="1938" y2="240" stroke="#449FDB" opacity="0.3"></line>
    <line stroke-width="1" x1="0" y1="256" x2="1938" y2="256" stroke="#449FDB" opacity="1"></line>
    <line stroke-width="1" x1="0" y1="272" x2="1938" y2="272" stroke="#449FDB" opacity="0.3"></line>
    <line stroke-width="1" x1="0" y1="288" x2="1938" y2="288" stroke="#449FDB" opacity="1"></line>
    <line stroke-width="1" x1="0" y1="304" x2="1938" y2="304" stroke="#449FDB" opacity="0.3"></line>
    <line stroke-width="1" x1="0" y1="320" x2="1938" y2="320" stroke="#449FDB" opacity="1"></line>
    <line stroke-width="1" x1="0" y1="336" x2="1938" y2="336" stroke="#449FDB" opacity="0.3"></line>
    <line stroke-width="1" x1="0" y1="352" x2="1938" y2="352" stroke="#449FDB" opacity="1"></line>
    <line stroke-width="1" x1="0" y1="368" x2="1938" y2="368" stroke="#449FDB" opacity="0.3"></line>
    <line stroke-width="1" x1="0" y1="384" x2="1938" y2="384" stroke="#449FDB" opacity="1"></line>
    <line stroke-width="1" x1="0" y1="400" x2="1938" y2="400" stroke="#449FDB" opacity="0.3"></line>
    <line stroke-width="1" x1="0" y1="416" x2="1938" y2="416" stroke="#449FDB" opacity="1"></line>
    <line stroke-width="1" x1="0" y1="432" x2="1938" y2="432" stroke="#449FDB" opacity="0.3"></line>
    <line stroke-width="1" x1="0" y1="448" x2="1938" y2="448" stroke="#449FDB" opacity="1"></line>
    <line stroke-width="1" x1="0" y1="464" x2="1938" y2="464" stroke="#449FDB" opacity="0.3"></line>
    <line stroke-width="1" x1="0" y1="480" x2="1938" y2="480" stroke="#449FDB" opacity="1"></line>
    <line stroke-width="1" x1="0" y1="496" x2="1938" y2="496" stroke="#449FDB" opacity="0.3"></line>
</g>
<path d="M377.694 282.296v-253.266c0-15.223 12.455-27.679 27.679-27.679s27.679 12.456 27.679 27.679v253.266c0 5.536 1.384 11.072 4.152 16.608 2.768 4.152 6.92 8.303 11.072 12.456 12.456 8.303 16.608 24.911 8.303 38.751-8.303 12.456-26.296 16.608-38.751 8.303s-22.144-19.375-29.063-31.831c-8.303-15.224-11.072-29.063-11.072-44.287v0z"></path>
<path d="M606.049 85.772c38.751 0 71.966 15.224 98.261 40.135 24.912 24.911 40.135 59.511 40.135 96.878v55.359c0 0 0 1.384 0 1.384 0 1.384 0 1.384 0 1.384 0 5.536 1.384 11.072 4.152 16.608 2.768 4.152 6.92 8.303 11.072 12.455 12.456 8.303 16.607 24.911 8.303 38.751-8.303 12.456-26.295 16.608-38.751 8.303s-22.144-19.375-29.063-31.831c-24.912 22.144-56.742 35.983-94.11 35.983s-71.966-15.224-96.878-40.135c-24.911-24.911-40.135-59.51-40.135-96.878 0-38.751 15.224-71.966 40.135-96.878 23.527-26.296 59.511-41.519 96.878-41.519v0zM664.176 164.659c-15.223-15.224-35.984-23.528-58.126-23.528-23.528 0-42.903 9.688-58.126 23.528-15.223 15.224-23.528 35.983-23.528 58.126s9.688 42.903 23.528 58.126c15.223 15.224 35.984 23.527 58.126 23.527 23.528 0 42.903-9.688 58.126-23.527 15.223-15.224 23.528-35.983 23.528-58.126 1.384-22.143-8.303-42.903-23.528-58.126v0z"></path>
<path d="M1668.937 220.017c0-37.367 15.224-70.582 38.751-94.11 24.911-23.528 58.127-38.751 94.11-38.751s70.582 15.224 94.11 38.751c23.527 24.911 38.751 58.126 38.751 94.11v0 109.334c0 15.224-12.456 27.679-27.679 27.679s-27.679-12.456-27.679-27.679v-109.334c0-22.143-8.303-41.519-23.527-55.359-13.84-13.84-34.599-23.528-55.359-23.528-22.143 0-41.519 8.303-55.359 23.528-13.84 13.84-23.527 33.215-23.527 55.359v109.334c0 15.224-12.456 27.679-27.679 27.679s-27.679-12.456-27.679-27.679v-109.334z"></path>
<path d="M1209.459 355.646v0c-1.384 0-1.384 0-1.384 0v0 0 0 0 0 0 0 0 0 0 0 0 0 0 0 0 0 0 0 0 0c-1.384 0-1.384 0-1.384 0v0c-1.384 0-2.768 0-2.768-1.384-34.599-9.688-63.662-27.679-84.422-51.207-22.143-23.527-34.599-52.591-34.599-84.422v-105.181c0-15.224 12.456-27.679 27.679-27.679s27.679 12.456 27.679 27.679v106.565c0 17.992 6.92 34.599 19.376 48.439s30.447 24.911 51.207 33.216c20.76-6.92 38.751-19.375 51.207-33.216s19.376-30.447 19.376-48.439v-106.566c0-15.224 12.456-27.679 27.679-27.679s27.679 12.456 27.679 27.679v106.566c0 31.831-12.456 60.895-34.599 84.422-20.76 23.527-49.822 41.519-84.422 51.207-5.535 0-6.92 0-8.303 0v0z"></path>
<path d="M1501.476 361.182c-38.751 0-71.966-15.224-98.262-40.135-24.911-24.911-40.135-59.51-40.135-96.878 0-38.751 15.224-71.966 40.135-98.261 24.911-24.912 59.511-40.135 98.262-40.135 37.367 0 71.966 15.224 96.878 40.135s40.135 59.511 40.135 98.262c0 15.224-12.456 27.679-27.679 27.679h-188.219c4.152 11.072 11.072 22.143 19.376 30.447 15.224 15.224 35.984 24.911 58.127 24.911 12.456 0 24.911-1.384 35.984-5.536s22.143-9.688 31.831-16.608c12.456-8.303 29.063-5.536 38.751 6.92s6.92 29.063-6.92 38.751c-13.84 9.688-30.447 17.991-47.054 23.527-16.608 4.152-33.216 6.92-51.207 6.92v0zM1578.979 196.489c-4.152-12.456-11.072-22.143-19.376-30.447-15.224-15.224-35.984-24.911-58.127-24.911-23.527 0-44.287 9.688-58.127 24.911-8.303 8.304-15.224 19.375-19.376 30.447h155.005z"></path>
<path d="M1033.695 321.046c0 1.384 0 1.384 0 2.768v0c0 34.599-13.84 65.046-35.984 88.574s-52.591 38.751-87.19 40.135c-15.223 1.384-27.679-11.072-29.063-26.296s11.072-27.679 26.295-29.063c19.375-1.384 37.367-9.688 49.822-23.527s20.76-31.831 20.76-51.207v0c0-1.384 0-1.384 0-2.768v-15.224c-20.76 13.84-45.671 22.144-71.966 22.144-34.599 0-66.43-13.84-89.958-37.367s-37.367-55.359-37.367-89.958v0 0-85.806c0-15.224 12.456-27.679 27.679-27.679s27.679 12.456 27.679 27.679v88.574c0 19.375 8.303 37.367 20.76 51.207 12.456 12.455 31.831 20.76 51.207 20.76 20.76 0 38.751-8.303 51.207-20.76s20.76-30.447 20.76-51.207v-88.574c0-15.224 12.456-27.679 27.679-27.679s27.679 12.456 27.679 27.679v207.595z"></path>
<path d="M106.436 125.907c24.911-24.912 59.511-40.135 96.878-40.135 38.751 0 71.966 15.224 98.262 40.135 24.911 24.911 40.135 59.511 40.135 96.878 0 38.751-15.224 71.966-40.135 96.878-63.662 63.663-106.565 24.911-178.531 45.671-22.144 6.92-41.519 16.608-56.743 33.216v0l-19.376 19.375c-11.072 11.072-29.064 11.072-38.751 0-11.072-11.072-11.072-27.679 0-38.751l20.76-20.76c15.223-15.224 26.296-34.599 31.831-55.359 20.76-70.582-17.992-113.486 45.671-177.148v0zM262.825 282.296c15.224-15.224 23.527-35.983 23.527-58.126s-9.688-42.903-23.527-58.126c-15.224-15.224-35.983-23.528-58.126-23.528-23.528 0-42.903 9.688-58.126 23.528-38.751 38.751-16.608 92.726-30.447 146.701 52.591-15.224 107.95 6.92 146.701-30.447v0z"></path>
</svg>
