<?xml version="1.0" encoding="utf-8"?>
<!-- Generated by IcoMoon.io -->
<!DOCTYPE svg PUBLIC "-//W3C//DTD SVG 1.1//EN" "http://www.w3.org/Graphics/SVG/1.1/DTD/svg11.dtd">
<svg version="1.1" xmlns="http://www.w3.org/2000/svg" xmlns:xlink="http://www.w3.org/1999/xlink" width="329" height="512" viewBox="0 0 329 512">
<g id="icomoon-ignore">
</g>
<path d="M164.571 237.714c-40.395 0-73.143-32.747-73.143-73.143s32.747-73.143 73.143-73.143c40.395 0 73.143 32.747 73.143 73.143s-32.747 73.143-73.143 73.143zM164.571 128c-20.198 0-36.572 16.374-36.572 36.572s16.373 36.572 36.572 36.572c20.198 0 36.571-16.374 36.571-36.572s-16.374-36.572-36.572-36.572z"></path>
<path d="M164.571 512c-0.011 0-0.024 0-0.036 0-7.17 0-13.376-4.127-16.373-10.134l-131.339-264.151c-10.612-21.033-16.826-45.846-16.826-72.109 0-0.363 0.001-0.727 0.004-1.089-0.001-90.835 73.681-164.516 164.571-164.516s164.572 73.681 164.572 164.571c0.002 0.307 0.003 0.671 0.003 1.034 0 26.263-6.214 51.076-17.253 73.046l-130.499 263.108c-3.044 6.116-9.251 10.245-16.422 10.245-0.141 0-0.281-0.001-0.421-0.005zM164.571 36.572c-70.692 0-128 57.307-128 128 0 0.064 0 0.14 0 0.215 0 20.505 4.863 39.873 13.498 57.016l114.501 230.769 115.017-231.68c8.236-16.439 13.057-35.816 13.057-56.32 0-70.692-57.308-128-128-128-0.026 0-0.052 0-0.077 0z"></path>
</svg>
