<?xml version="1.0" encoding="utf-8"?>
<!-- Generated by IcoMoon.io -->
<!DOCTYPE svg PUBLIC "-//W3C//DTD SVG 1.1//EN" "http://www.w3.org/Graphics/SVG/1.1/DTD/svg11.dtd">
<svg version="1.1" xmlns="http://www.w3.org/2000/svg" xmlns:xlink="http://www.w3.org/1999/xlink" width="512" height="512" viewBox="0 0 512 512">
<g id="icomoon-ignore">
</g>
<path d="M60.16 401.664c-2.816 0-5.632-1.536-7.168-4.352-2.304-4.096-0.768-8.96 3.328-11.264 56.064-30.72 108.544-43.264 156.16-36.864 26.368 3.584 38.4 7.424 54.784 13.056 6.912 2.304 14.592 4.864 24.576 7.936 64 18.944 98.816 14.848 143.104-17.408l13.312-10.24c3.584-2.816 8.704-2.048 11.52 1.536s2.048 8.704-1.536 11.52l-13.568 10.24c-48.64 35.584-88.32 40.704-157.44 19.968-10.24-3.072-18.176-5.632-25.088-7.936-16.128-5.376-26.88-8.96-51.712-12.288-44.032-5.888-93.184 5.888-146.176 35.072-1.536 0.512-2.816 1.024-4.096 1.024z"></path>
<path d="M285.184 281.344l42.24 83.2-56.32-74.496c-2.816-3.584-2.048-8.704 1.536-11.52s8.704-2.048 11.52 1.536c0.512 0.512 0.768 0.768 1.024 1.28z"></path>
<path d="M58.624 399.36c-1.536 0-3.328-0.512-4.608-1.536-3.84-2.56-4.608-7.68-2.048-11.52l155.904-229.376 77.568 123.904c2.304 3.84 1.28 8.96-2.56 11.264s-8.96 1.28-11.264-2.56l-64-102.656-141.824 208.384c-2.048 2.816-4.608 4.096-7.168 4.096z"></path>
<path d="M429.824 371.2c-2.56 0-5.12-1.28-6.656-3.584l-92.672-132.096-45.824 55.296c-2.816 3.584-8.192 4.096-11.52 1.024-3.584-2.816-4.096-8.192-1.024-11.52l59.392-71.936 105.216 149.76c2.56 3.84 1.792 8.96-2.048 11.52-1.536 1.024-3.072 1.536-4.864 1.536z"></path>
<path d="M152.32 241.152l43.52-14.336 1.792 1.536 20.224 18.432-2.816-0.256 29.696-14.336-27.136 18.944-1.28 0.768-1.536-1.024-23.040-14.848 4.864 0.512-37.888 19.968c-4.096 2.048-8.96 0.512-11.008-3.584s-0.512-8.96 3.584-11.008c0.256-0.256 0.512-0.512 1.024-0.768z"></path>
<path d="M295.424 265.728l26.368 14.592-5.376 0.512 19.456-10.752 2.048-1.024 1.536 0.768 39.424 20.736-42.496-13.824 3.584-0.256-17.152 13.824-2.048 1.792-3.328-1.28-28.416-9.984c-4.352-1.536-6.656-6.144-5.12-10.496s6.144-6.656 10.496-5.12c0.256 0.256 0.768 0.512 1.024 0.512z"></path>
<path d="M323.072 190.976c-0.768 0-1.28-0.512-1.28-1.28v-37.12c0-0.768 0.512-1.28 1.28-1.28s1.28 0.512 1.28 1.28v37.12c0 0.768-0.512 1.28-1.28 1.28z"></path>
<path d="M306.944 181.76c-0.512 0-1.024-0.256-1.28-0.768-0.256-0.768-0.256-1.536 0.512-1.792l32-18.432c0.768-0.256 1.536-0.256 1.792 0.512s0.256 1.536-0.512 1.792l-32 18.432c0 0.256-0.256 0.256-0.512 0.256z"></path>
<path d="M338.944 181.76c-0.256 0-0.512 0-0.768-0.256l-32-18.432c-0.768-0.256-0.768-1.28-0.512-1.792 0.256-0.768 1.28-0.768 1.792-0.512l32 18.432c0.768 0.256 0.768 1.28 0.512 1.792 0 0.512-0.512 0.768-1.024 0.768z"></path>
<path d="M312.832 186.112c0 0-0.256 0-0.256 0-0.768-0.256-1.28-1.024-1.024-1.792l2.048-7.936-7.936-2.048c-0.768-0.256-1.28-1.024-1.024-1.792s1.024-1.28 1.792-1.024l9.216 2.56c0.768 0.256 1.28 1.024 1.024 1.792l-2.56 9.216c-0.256 0.768-0.768 1.024-1.28 1.024z"></path>
<path d="M329.728 188.16c-0.256 0-0.768-0.256-1.024-0.512l-5.888-5.888-5.888 5.888c-0.512 0.512-1.28 0.512-2.048 0-0.512-0.512-0.512-1.28 0-2.048l6.656-6.912c0.512-0.512 1.536-0.512 2.048 0l6.656 6.912c0.512 0.512 0.512 1.28 0 2.048 0.256 0.512 0 0.512-0.512 0.512z"></path>
<path d="M333.312 186.112c-0.512 0-1.28-0.512-1.28-1.024l-2.56-9.216c-0.256-0.768 0.256-1.536 1.024-1.792l9.216-2.56c0.768-0.256 1.536 0.256 1.792 1.024s-0.256 1.536-1.024 1.792l-7.936 2.048 2.048 7.936c0.256 0.768-0.256 1.536-1.024 1.792 0 0-0.256 0-0.256 0z"></path>
<path d="M339.968 170.496c0 0-0.256 0-0.256 0l-9.216-2.56c-0.768-0.256-1.28-1.024-1.024-1.792l2.56-9.216c0.256-0.768 1.024-1.28 1.792-1.024s1.28 1.024 1.024 1.792l-2.048 7.936 7.936 2.048c0.768 0.256 1.28 1.024 1.024 1.792-0.512 0.512-1.024 1.024-1.792 1.024z"></path>
<path d="M323.072 163.328c-0.256 0-0.768-0.256-1.024-0.512l-6.656-6.656c-0.512-0.512-0.512-1.28 0-2.048 0.512-0.512 1.28-0.512 2.048 0l5.888 5.888 5.888-5.888c0.512-0.512 1.28-0.512 2.048 0 0.512 0.512 0.512 1.28 0 2.048l-6.656 6.656c-0.768 0.512-1.28 0.512-1.536 0.512z"></path>
<path d="M305.92 170.496c-0.512 0-1.28-0.512-1.28-1.024-0.256-0.768 0.256-1.536 1.024-1.792l7.936-2.048-2.048-7.936c-0.256-0.768 0.256-1.536 1.024-1.792s1.536 0.256 1.792 1.024l2.56 9.216c0.256 0.768-0.256 1.536-1.024 1.792l-9.216 2.56c-0.512 0-0.512 0-0.768 0z"></path>
<path d="M254.208 169.728c-1.024 0-2.048-1.024-2.048-2.048v-48.128c0-1.024 1.024-2.048 2.048-2.048s2.048 1.024 2.048 2.048v47.872c0 1.28-0.768 2.304-2.048 2.304z"></path>
<path d="M233.472 157.696c-0.768 0-1.28-0.256-1.792-1.024-0.512-1.024-0.256-2.304 0.768-2.816l41.472-24.064c1.024-0.512 2.304-0.256 2.816 0.768s0.256 2.304-0.768 2.816l-41.472 24.064c-0.256 0-0.512 0.256-1.024 0.256z"></path>
<path d="M274.944 157.696c-0.256 0-0.768 0-1.024-0.256l-41.472-24.064c-1.024-0.512-1.28-1.792-0.768-2.816s1.792-1.28 2.816-0.768l41.472 24.064c1.024 0.512 1.28 1.792 0.768 2.816-0.256 0.512-1.024 1.024-1.792 1.024z"></path>
<path d="M241.152 163.584c-0.256 0-0.256 0-0.512 0-1.024-0.256-1.792-1.536-1.536-2.56l2.56-9.984-9.984-2.816c-1.024-0.256-1.792-1.536-1.536-2.56s1.536-1.792 2.56-1.536l12.032 3.328c1.024 0.256 1.792 1.536 1.536 2.56l-3.072 12.032c-0.512 0.768-1.28 1.536-2.048 1.536z"></path>
<path d="M263.168 166.144c-0.512 0-1.024-0.256-1.536-0.512l-7.424-7.424-7.424 7.424c-0.768 0.768-2.048 0.768-2.816 0s-0.768-2.048 0-2.816l8.704-8.96c0.768-0.768 2.048-0.768 2.816 0l8.704 8.96c0.768 0.768 0.768 2.048 0 2.816 0 0.256-0.512 0.512-1.024 0.512z"></path>
<path d="M267.52 163.584c-1.024 0-1.792-0.512-2.048-1.536l-3.072-12.032c-0.256-1.024 0.256-2.304 1.536-2.56l12.032-3.328c1.024-0.256 2.304 0.256 2.56 1.536 0.256 1.024-0.256 2.304-1.536 2.56l-9.984 2.816 2.56 9.984c0.256 1.024-0.256 2.304-1.536 2.56 0-0.256-0.256 0-0.512 0z"></path>
<path d="M276.48 143.104c-0.256 0-0.256 0-0.512 0l-12.032-3.328c-1.024-0.256-1.792-1.536-1.536-2.56l3.072-12.032c0.256-1.024 1.28-1.792 2.56-1.536 1.024 0.256 1.792 1.536 1.536 2.56l-2.56 9.984 9.984 2.816c1.024 0.256 1.792 1.536 1.536 2.56-0.256 0.768-1.28 1.536-2.048 1.536z"></path>
<path d="M254.208 133.888c-0.512 0-1.024-0.256-1.536-0.512l-8.704-8.704c-0.768-0.768-0.768-2.048 0-2.816s2.048-0.768 2.816 0l7.424 7.424 7.424-7.424c0.768-0.768 2.048-0.768 2.816 0s0.768 2.048 0 2.816l-8.704 8.704c-0.256 0.256-0.768 0.512-1.536 0.512z"></path>
<path d="M232.192 143.104c-1.024 0-1.792-0.512-2.048-1.536s0.256-2.304 1.536-2.56l9.984-2.56-2.56-9.984c-0.256-1.024 0.256-2.304 1.536-2.56 1.024-0.256 2.304 0.256 2.56 1.536l3.072 12.032c0.256 1.024-0.256 2.304-1.536 2.56l-12.032 3.328c0-0.256-0.256-0.256-0.512-0.256z"></path>
<path d="M281.856 228.608c-0.768 0-1.28-0.512-1.28-1.28v-29.952c0-0.768 0.512-1.28 1.28-1.28s1.28 0.512 1.28 1.28v29.952c0 0.768-0.512 1.28-1.28 1.28z"></path>
<path d="M268.8 221.184c-0.512 0-1.024-0.256-1.28-0.768-0.256-0.768-0.256-1.536 0.512-1.792l25.856-15.104c0.768-0.256 1.536-0.256 1.792 0.512s0.256 1.536-0.512 1.792l-25.856 15.104c0 0.256-0.256 0.256-0.512 0.256z"></path>
<path d="M294.912 221.184c-0.256 0-0.512 0-0.768-0.256l-25.856-15.104c-0.768-0.256-0.768-1.28-0.512-1.792 0.256-0.768 1.28-0.768 1.792-0.512l25.856 15.104c0.768 0.256 0.768 1.28 0.512 1.792s-0.768 0.768-1.024 0.768z"></path>
<path d="M273.408 224.768c0 0-0.256 0-0.256 0-0.768-0.256-1.28-1.024-1.024-1.792l1.536-6.144-6.144-1.792c-0.768-0.256-1.28-1.024-1.024-1.792s1.024-1.28 1.792-1.024l7.424 2.048c0.768 0.256 1.28 1.024 1.024 1.792l-2.048 7.424c0 1.024-0.512 1.28-1.28 1.28z"></path>
<path d="M287.232 226.56c-0.256 0-0.768-0.256-1.024-0.512l-4.608-4.608-4.608 4.608c-0.512 0.512-1.28 0.512-2.048 0-0.512-0.512-0.512-1.28 0-2.048l5.376-5.632c0.512-0.512 1.536-0.512 2.048 0l5.376 5.632c0.512 0.512 0.512 1.28 0 2.048 0.256 0.256 0 0.512-0.512 0.512z"></path>
<path d="M290.048 224.768c-0.512 0-1.28-0.512-1.28-1.024l-2.048-7.424c-0.256-0.768 0.256-1.536 1.024-1.792l7.424-2.048c0.768-0.256 1.536 0.256 1.792 1.024s-0.256 1.536-1.024 1.792l-6.144 1.792 1.536 6.144c0.256 0.768-0.256 1.536-1.024 1.792 0-0.256 0-0.256-0.256-0.256z"></path>
<path d="M295.68 211.968c0 0-0.256 0-0.256 0l-7.424-2.048c-0.768-0.256-1.28-1.024-1.024-1.792l2.048-7.424c0.256-0.768 1.024-1.28 1.792-1.024s1.28 1.024 1.024 1.792l-1.536 6.144 6.144 1.792c0.768 0.256 1.28 1.024 1.024 1.792-0.768 0.512-1.28 0.768-1.792 0.768z"></path>
<path d="M281.856 206.336c-0.256 0-0.768-0.256-1.024-0.512l-5.376-5.376c-0.512-0.512-0.512-1.28 0-2.048 0.512-0.512 1.28-0.512 2.048 0l4.608 4.608 4.608-4.608c0.512-0.512 1.28-0.512 2.048 0 0.512 0.512 0.512 1.28 0 2.048l-5.376 5.376c-0.768 0.512-1.28 0.512-1.536 0.512z"></path>
<path d="M268.032 211.968c-0.512 0-1.28-0.512-1.28-1.024-0.256-0.768 0.256-1.536 1.024-1.792l6.144-1.536-1.536-6.144c-0.256-0.768 0.256-1.536 1.024-1.792s1.536 0.256 1.792 1.024l2.048 7.424c0.256 0.768-0.256 1.536-1.024 1.792l-7.424 2.048c-0.512 0-0.768 0-0.768 0z"></path>
</svg>
