<?xml version="1.0" encoding="utf-8"?>
<!-- Generated by IcoMoon.io -->
<!DOCTYPE svg PUBLIC "-//W3C//DTD SVG 1.1//EN" "http://www.w3.org/Graphics/SVG/1.1/DTD/svg11.dtd">
<svg version="1.1" xmlns="http://www.w3.org/2000/svg" xmlns:xlink="http://www.w3.org/1999/xlink" width="512" height="512" viewBox="0 0 512 512">
<g id="icomoon-ignore">
</g>
<path d="M468.089 400.545c1.563 1.549 2.411 3.581 2.411 5.7s-0.847 4.151-2.353 5.644l-45.431 45.431c-38.831 38.973-158.511-7.488-262.428-111.904-104.237-104.738-150.627-223.824-111.963-262.488l45.374-45.374c1.549-1.563 3.581-2.41 5.701-2.41s4.151 0.847 5.644 2.353l78.799 78.799c1.563 1.549 2.411 3.581 2.411 5.701s-0.847 4.151-2.353 5.644l-42.43 42.43c-27.576 27.286-2.090 95.63 48.399 145.93 50.587 50.397 118.589 75.822 146.059 48.351l42.373-42.373c1.549-1.563 3.581-2.411 5.7-2.411 2.022 0 3.964 0.771 5.433 2.148l78.656 78.827zM384 284.259c-11.541 0-22.603 4.612-30.726 12.81l-42.315 42.315c-8.325 8.325-57.799-10.173-96.17-48.399-38.221-38.077-56.714-87.671-48.418-95.88l42.439-42.439c8.141-8.066 12.752-19.128 12.752-30.669s-4.612-22.603-12.81-30.726l-78.684-78.685c-8.066-8.14-19.128-12.752-30.669-12.752s-22.603 4.612-30.726 12.81l-45.316 45.316c-58.063 58.063-4.602 195.298 111.904 312.365 116.2 116.757 254.251 170.35 312.447 111.941l45.351-45.351c8.14-8.066 12.752-19.128 12.752-30.669s-4.612-22.603-12.81-30.726l-78.363-78.363c-8.034-8.286-19.096-12.897-30.637-12.897zM414.316 296.834l0.322 0.322-24.994 24.765c-0.069-0.070-0.139-0.138-0.211-0.204l24.882-24.882z"></path>
<path d="M469.224 436.31l-114.935-114.935-24.968 24.968 114.935 114.935z"></path>
<path d="M184.798 151.886l-114.935-114.935-24.968 24.968 114.935 114.935z"></path>
</svg>
