<?xml version="1.0" encoding="utf-8"?>
<!-- Generated by IcoMoon.io -->
<!DOCTYPE svg PUBLIC "-//W3C//DTD SVG 1.1//EN" "http://www.w3.org/Graphics/SVG/1.1/DTD/svg11.dtd">
<svg version="1.1" xmlns="http://www.w3.org/2000/svg" xmlns:xlink="http://www.w3.org/1999/xlink" width="276" height="512" viewBox="0 0 276 512">
<g id="icomoon-ignore">
</g>
<path d="M10.24 501.366c6.031 6.551 14.649 10.641 24.221 10.641s18.191-4.091 24.201-10.618l205.609-219.396c6.402-6.764 10.338-15.919 10.338-25.994s-3.936-19.23-10.354-26.012l-205.571-219.355c-6.031-6.551-14.648-10.642-24.221-10.642s-18.191 4.090-24.201 10.618c-6.245 6.792-10.060 15.861-10.060 25.82s3.816 19.029 10.064 25.824l181.538 193.745-181.563 193.379c-6.226 6.839-10.038 15.971-10.038 25.994s3.812 19.154 10.066 26.025z"></path>
</svg>
