<?xml version="1.0" encoding="utf-8"?>
<!-- Generated by IcoMoon.io -->
<!DOCTYPE svg PUBLIC "-//W3C//DTD SVG 1.1//EN" "http://www.w3.org/Graphics/SVG/1.1/DTD/svg11.dtd">
<svg version="1.1" xmlns="http://www.w3.org/2000/svg" xmlns:xlink="http://www.w3.org/1999/xlink" width="499" height="512" viewBox="0 0 499 512">
<g id="icomoon-ignore">
</g>
<path d="M271.42 14.366l57.947 128.18c3.433 7.71 10.27 13.011 18.191 14.155l131.494 19.516c19.727 2.922 27.618 28.973 13.252 43.791l-95.744 98.695c-5.723 5.964-8.342 14.547-6.927 22.95l23.401 140.228c3.464 21.052-17.167 37.165-34.756 27.076l-117.037-67.192c-7.048-4.036-15.451-4.036-22.498 0l-117.007 67.192c-17.558 10.090-38.279-6.024-34.725-27.076l23.341-140.228c1.445-8.403-1.174-16.986-6.927-22.95l-95.684-98.695c-14.366-14.818-6.505-40.87 13.221-43.791l131.464-19.516c7.951-1.144 14.757-6.445 18.221-14.155l57.916-128.18c8.674-19.215 34.244-19.215 42.858 0z"></path>
</svg>
