<?xml version="1.0" encoding="utf-8"?>
<!-- Generated by IcoMoon.io -->
<!DOCTYPE svg PUBLIC "-//W3C//DTD SVG 1.1//EN" "http://www.w3.org/Graphics/SVG/1.1/DTD/svg11.dtd">
<svg version="1.1" xmlns="http://www.w3.org/2000/svg" xmlns:xlink="http://www.w3.org/1999/xlink" width="550" height="512" viewBox="0 0 550 512">
<g id="icomoon-ignore">
</g>
<path d="M134.637 442.596h269.654v-37.926h-269.654z"></path>
<path d="M269.464 153.6c42.416 0 76.8-34.385 76.8-76.8s-34.385-76.8-76.8-76.8c-42.416 0-76.8 34.385-76.8 76.8s34.385 76.8 76.8 76.8zM269.464 115.674c-21.47 0-38.874-17.404-38.874-38.874s17.405-38.874 38.874-38.874c21.469 0 38.874 17.404 38.874 38.874s-17.404 38.874-38.874 38.874z"></path>
<path d="M76.8 500.433c42.415 0 76.8-34.385 76.8-76.8s-34.385-76.8-76.8-76.8c-42.416 0-76.8 34.385-76.8 76.8s34.385 76.8 76.8 76.8zM76.8 462.507c-21.469 0-38.874-17.404-38.874-38.874s17.404-38.874 38.874-38.874c21.469 0 38.874 17.404 38.874 38.874s-17.404 38.874-38.874 38.874z"></path>
<path d="M462.127 500.433c42.416 0 76.8-34.385 76.8-76.8s-34.385-76.8-76.8-76.8c-42.416 0-76.8 34.385-76.8 76.8s34.385 76.8 76.8 76.8zM462.127 462.507c-21.469 0-38.874-17.404-38.874-38.874s17.404-38.874 38.874-38.874c21.469 0 38.874 17.404 38.874 38.874s-17.404 38.874-38.874 38.874z"></path>
<path d="M117.769 380.955l143.36-242.157-32.636-19.32-143.36 242.157z"></path>
<path d="M277.795 138.603l143.36 242.346 32.642-19.31-143.36-242.346z"></path>
</svg>
