<?xml version="1.0" encoding="utf-8"?>
<!-- Generated by IcoMoon.io -->
<!DOCTYPE svg PUBLIC "-//W3C//DTD SVG 1.1//EN" "http://www.w3.org/Graphics/SVG/1.1/DTD/svg11.dtd">
<svg version="1.1" xmlns="http://www.w3.org/2000/svg" xmlns:xlink="http://www.w3.org/1999/xlink" width="512" height="512" viewBox="0 0 512 512">
<g id="icomoon-ignore">
</g>
<path d="M288.016 224l-0.001 117.092c0 29.709-0.385 46.828 2.765 55.25 3.125 8.377 10.959 17.073 19.495 22.101 11.342 6.794 24.271 10.188 38.854 10.188 25.927 0 41.239-3.424 66.871-20.27v76.972c-21.85 10.276-40.933 16.297-58.662 20.461-17.75 4.121-36.93 6.203-57.532 6.203-23.414 0-37.228-2.943-55.205-8.828-17.979-5.934-33.33-14.403-46.010-25.27-12.725-10.961-21.511-22.604-26.424-34.916-4.913-12.318-7.358-30.207-7.358-53.622v-179.55h-68.713v-72.503c20.104-6.521 42.582-15.894 56.89-28.076 14.377-12.225 25.883-26.853 34.553-43.972 8.696-17.073 14.674-38.856 17.936-65.258h82.542l-0.001 127.998h127.984v96h-127.984z"></path>
</svg>
