<?xml version="1.0" encoding="utf-8"?>
<!-- Generated by IcoMoon.io -->
<!DOCTYPE svg PUBLIC "-//W3C//DTD SVG 1.1//EN" "http://www.w3.org/Graphics/SVG/1.1/DTD/svg11.dtd">
<svg version="1.1" xmlns="http://www.w3.org/2000/svg" xmlns:xlink="http://www.w3.org/1999/xlink" width="869" height="512" viewBox="0 0 869 512">
<g id="icomoon-ignore">
</g>
<path d="M0.709 448.887c-0.002-0.195-0.003-0.424-0.003-0.654 0-16.301 6.494-31.086 17.035-41.907l375.123-390.014c10.258-10.813 24.731-17.541 40.776-17.541s30.517 6.728 40.752 17.516l375.159 390.053c10.536 11.048 17.019 26.041 17.019 42.548s-6.484 31.501-17.043 42.573c-10.213 11.11-24.848 18.063-41.107 18.063s-30.894-6.952-41.094-18.047l-333.332-346.81-334.005 346.77c-10.237 11.134-24.871 18.087-41.13 18.087s-30.893-6.952-41.094-18.047c-10.566-10.849-17.059-25.634-17.059-41.935 0-0.23 0.001-0.459 0.004-0.688z"></path>
</svg>
