<?xml version="1.0" encoding="UTF-8"?>
<svg width="150px" height="151px" viewBox="0 0 150 151" version="1.1" xmlns="http://www.w3.org/2000/svg" xmlns:xlink="http://www.w3.org/1999/xlink">
    <!-- Generator: Sketch 41 (35326) - http://www.bohemiancoding.com/sketch -->
    <title>Untitled</title>
    <desc>Created with Sketch.</desc>
    <defs></defs>
    <g id="Page-1" stroke="none" stroke-width="1" fill="none" fill-rule="evenodd">
        <path d="M46.7611336,18.611336 C57.6923077,7.68016194 72.8744939,1 89.2712551,1 C106.275304,1 120.850202,7.68016194 132.388664,18.611336 C143.319838,29.5425101 150,44.7246964 150,61.1214575 C150,78.1255061 143.319838,92.7004049 132.388664,103.631579 C104.453441,131.566802 85.6275304,114.562753 54.048583,123.672065 C44.3319838,126.708502 35.8299595,130.959514 29.1497976,138.246964 L29.1497976,138.246964 L20.6477733,146.748988 C15.7894737,151.607287 7.89473684,151.607287 3.6437247,146.748988 C-1.2145749,141.890688 -1.2145749,134.603239 3.6437247,129.744939 L12.145749,121.242915 L12.7530364,120.635628 C19.4331984,113.955466 24.291498,105.453441 26.7206478,96.3441296 C35.8299595,65.3724696 18.8259109,46.5465587 46.7611336,18.611336 L46.7611336,18.611336 Z M115.384615,87.2348178 C122.064777,80.5546559 125.708502,71.4453441 125.708502,61.7287449 C125.708502,52.0121457 121.45749,42.902834 115.384615,36.2226721 C108.704453,29.5425101 99.5951417,25.8987854 89.8785425,25.8987854 C79.5546559,25.8987854 71.0526316,30.1497976 64.3724696,36.2226721 C47.3684211,53.2267206 57.0850202,76.9109312 51.0121457,100.595142 C74.0890688,93.9149798 98.3805668,103.631579 115.384615,87.2348178 L115.384615,87.2348178 Z" id="Shape" fill="#0E7DFF"></path>
    </g>
</svg>